<svg version="1.1" xmlns="http://www.w3.org/2000/svg" xmlns:xlink="http://www.w3.org/1999/xlink" width="917.9326171875" height="654"><defs/><g><g transform="translate(-110,-54) scale(1,1)"><path fill="#C0C0C0" stroke="none" d="M 455 96 C 455 86.6111584 518.3517008 79 596.5 79 C 674.6482992 79 738 86.6111584 738 96 C 738 105.3888416 674.6482992 113 596.5 113 C 518.3517008 113 455 105.3888416 455 96 Z" opacity="0.2"/></g><g transform="translate(-110,-54) scale(1,1)"><path fill="#ffff00" stroke="none" d="M 448 89 C 448 79.6111584 511.3517008 72 589.5 72 C 667.6482992 72 731 79.6111584 731 89 C 731 98.3888416 667.6482992 106 589.5 106 C 511.3517008 106 448 98.3888416 448 89 Z"/></g><g transform="translate(-110,-54) scale(1,1)"><path fill="none" stroke="#000000" d="M 448 89 C 448 79.6111584 511.3517008 72 589.5 72 C 667.6482992 72 731 79.6111584 731 89 C 731 98.3888416 667.6482992 106 589.5 106 C 511.3517008 106 448 98.3888416 448 89 Z" stroke-miterlimit="10"/></g><g transform="translate(-110,-54) scale(1,1)"><g><path fill="none" stroke="none"/><text fill="#000000" stroke="none" font-family="Arial" font-size="13px" font-style="normal" font-weight="bold" text-decoration="none" x="549.0400390625" y="96">view org chart</text></g></g><g transform="translate(-110,-54) scale(1,1)"><path fill="#C0C0C0" stroke="none" d="M 495 184 C 495 174.6111584 559.9187039999999 167 640 167 C 720.0812960000001 167 785 174.6111584 785 184 C 785 193.3888416 720.0812960000001 201 640 201 C 559.9187039999999 201 495 193.3888416 495 184 Z" opacity="0.2"/></g><g transform="translate(-110,-54) scale(1,1)"><path fill="#ffff00" stroke="none" d="M 488 177 C 488 167.6111584 552.9187039999999 160 633 160 C 713.0812960000001 160 778 167.6111584 778 177 C 778 186.3888416 713.0812960000001 194 633 194 C 552.9187039999999 194 488 186.3888416 488 177 Z"/></g><g transform="translate(-110,-54) scale(1,1)"><path fill="none" stroke="#000000" d="M 488 177 C 488 167.6111584 552.9187039999999 160 633 160 C 713.0812960000001 160 778 167.6111584 778 177 C 778 186.3888416 713.0812960000001 194 633 194 C 552.9187039999999 194 488 186.3888416 488 177 Z" stroke-miterlimit="10"/></g><g transform="translate(-110,-54) scale(1,1)"><g><path fill="none" stroke="none"/><text fill="#000000" stroke="none" font-family="Arial" font-size="13px" font-style="normal" font-weight="bold" text-decoration="none" x="602.648681640625" y="184">create unit</text></g></g><g transform="translate(-110,-54) scale(1,1)"><path fill="#C0C0C0" stroke="none" d="M 543 360 C 543 350.6111584 590.2339536 343 648.5 343 C 706.7660464 343 754 350.6111584 754 360 C 754 369.3888416 706.7660464 377 648.5 377 C 590.2339536 377 543 369.3888416 543 360 Z" opacity="0.2"/></g><g transform="translate(-110,-54) scale(1,1)"><path fill="#ffff00" stroke="none" d="M 536 353 C 536 343.6111584 583.2339536 336 641.5 336 C 699.7660464 336 747 343.6111584 747 353 C 747 362.3888416 699.7660464 370 641.5 370 C 583.2339536 370 536 362.3888416 536 353 Z"/></g><g transform="translate(-110,-54) scale(1,1)"><path fill="none" stroke="#000000" d="M 536 353 C 536 343.6111584 583.2339536 336 641.5 336 C 699.7660464 336 747 343.6111584 747 353 C 747 362.3888416 699.7660464 370 641.5 370 C 583.2339536 370 536 362.3888416 536 353 Z" stroke-miterlimit="10"/></g><g transform="translate(-110,-54) scale(1,1)"><g><path fill="none" stroke="none"/><text fill="#000000" stroke="none" font-family="Arial" font-size="13px" font-style="normal" font-weight="bold" text-decoration="none" x="605.73095703125" y="360">dissolve unit</text></g></g><g transform="translate(-110,-54) scale(1,1)"><path fill="#C0C0C0" stroke="none" d="M 551 424 C 551 414.6111584 599.129384 407 658.5 407 C 717.870616 407 766 414.6111584 766 424 C 766 433.3888416 717.870616 441 658.5 441 C 599.129384 441 551 433.3888416 551 424 Z" opacity="0.2"/></g><g transform="translate(-110,-54) scale(1,1)"><path fill="#ffff00" stroke="none" d="M 544 417 C 544 407.6111584 592.129384 400 651.5 400 C 710.870616 400 759 407.6111584 759 417 C 759 426.3888416 710.870616 434 651.5 434 C 592.129384 434 544 426.3888416 544 417 Z"/></g><g transform="translate(-110,-54) scale(1,1)"><path fill="none" stroke="#000000" d="M 544 417 C 544 407.6111584 592.129384 400 651.5 400 C 710.870616 400 759 407.6111584 759 417 C 759 426.3888416 710.870616 434 651.5 434 C 592.129384 434 544 426.3888416 544 417 Z" stroke-miterlimit="10"/></g><g transform="translate(-110,-54) scale(1,1)"><g><path fill="none" stroke="none"/><text fill="#000000" stroke="none" font-family="Arial" font-size="13px" font-style="normal" font-weight="bold" text-decoration="none" x="610.306884765625" y="424">set unit parent</text></g></g><g transform="translate(-110,-54) scale(1,1)"><path fill="#C0C0C0" stroke="none" d="M 535 480 C 535 470.6111584 594.7699792 463 668.5 463 C 742.2300208 463 802 470.6111584 802 480 C 802 489.3888416 742.2300208 497 668.5 497 C 594.7699792 497 535 489.3888416 535 480 Z" opacity="0.2"/></g><g transform="translate(-110,-54) scale(1,1)"><path fill="#ffff00" stroke="none" d="M 528 473 C 528 463.6111584 587.7699792 456 661.5 456 C 735.2300208 456 795 463.6111584 795 473 C 795 482.3888416 735.2300208 490 661.5 490 C 587.7699792 490 528 482.3888416 528 473 Z"/></g><g transform="translate(-110,-54) scale(1,1)"><path fill="none" stroke="#000000" d="M 528 473 C 528 463.6111584 587.7699792 456 661.5 456 C 735.2300208 456 795 463.6111584 795 473 C 795 482.3888416 735.2300208 490 661.5 490 C 587.7699792 490 528 482.3888416 528 473 Z" stroke-miterlimit="10"/></g><g transform="translate(-110,-54) scale(1,1)"><g><path fill="none" stroke="none"/><text fill="#000000" stroke="none" font-family="Arial" font-size="13px" font-style="normal" font-weight="bold" text-decoration="none" x="607.300537109375" y="480">add unit subsidiary</text></g></g><g transform="translate(-110,-54) scale(1,1)"><path fill="#C0C0C0" stroke="none" d="M 543 608 C 543 598.6111584 593.5918176 591 656 591 C 718.4081824 591 769 598.6111584 769 608 C 769 617.3888416 718.4081824 625 656 625 C 593.5918176 625 543 617.3888416 543 608 Z" opacity="0.2"/></g><g transform="translate(-110,-54) scale(1,1)"><path fill="#ffff00" stroke="none" d="M 536 601 C 536 591.6111584 586.5918176 584 649 584 C 711.4081824 584 762 591.6111584 762 601 C 762 610.3888416 711.4081824 618 649 618 C 586.5918176 618 536 610.3888416 536 601 Z"/></g><g transform="translate(-110,-54) scale(1,1)"><path fill="none" stroke="#000000" d="M 536 601 C 536 591.6111584 586.5918176 584 649 584 C 711.4081824 584 762 591.6111584 762 601 C 762 610.3888416 711.4081824 618 649 618 C 586.5918176 618 536 610.3888416 536 601 Z" stroke-miterlimit="10"/></g><g transform="translate(-110,-54) scale(1,1)"><g><path fill="none" stroke="none"/><text fill="#000000" stroke="none" font-family="Arial" font-size="13px" font-style="normal" font-weight="bold" text-decoration="none" x="606.0009765625" y="608">assign position</text></g></g><g transform="translate(-110,-54) scale(1,1)"><path fill="#C0C0C0" stroke="none" d="M 495 688 C 495 678.6111584 550.7405424 671 619.5 671 C 688.2594576 671 744 678.6111584 744 688 C 744 697.3888416 688.2594576 705 619.5 705 C 550.7405424 705 495 697.3888416 495 688 Z" opacity="0.2"/></g><g transform="translate(-110,-54) scale(1,1)"><path fill="#ffff00" stroke="none" d="M 488 681 C 488 671.6111584 543.7405424 664 612.5 664 C 681.2594576 664 737 671.6111584 737 681 C 737 690.3888416 681.2594576 698 612.5 698 C 543.7405424 698 488 690.3888416 488 681 Z"/></g><g transform="translate(-110,-54) scale(1,1)"><path fill="none" stroke="#000000" d="M 488 681 C 488 671.6111584 543.7405424 664 612.5 664 C 681.2594576 664 737 671.6111584 737 681 C 737 690.3888416 681.2594576 698 612.5 698 C 543.7405424 698 488 690.3888416 488 681 Z" stroke-miterlimit="10"/></g><g transform="translate(-110,-54) scale(1,1)"><g><path fill="none" stroke="none"/><text fill="#000000" stroke="none" font-family="Arial" font-size="13px" font-style="normal" font-weight="bold" text-decoration="none" x="566.615966796875" y="688">remove position</text></g></g><g transform="translate(-110,-54) scale(1,1)"><path fill="#ffff00" stroke="none" d="M 162.09392063210228 201.68 C 162.09392063210228 196.886167936 165.97976295704774 193 170.773193359375 193 C 175.56662376170226 193 179.45246608664772 196.886167936 179.45246608664772 201.68 C 179.45246608664772 206.47383206400002 175.56662376170226 210.36 170.773193359375 210.36 C 165.97976295704774 210.36 162.09392063210228 206.47383206400002 162.09392063210228 201.68 Z"/></g><g transform="translate(-110,-54) scale(1,1)"><path fill="none" stroke="#000000" d="M 162.09392063210228 201.68 C 162.09392063210228 196.886167936 165.97976295704774 193 170.773193359375 193 C 175.56662376170226 193 179.45246608664772 196.886167936 179.45246608664772 201.68 C 179.45246608664772 206.47383206400002 175.56662376170226 210.36 170.773193359375 210.36 C 165.97976295704774 210.36 162.09392063210228 206.47383206400002 162.09392063210228 201.68 Z" stroke-miterlimit="10"/></g><g transform="translate(-110,-54) scale(1,1)"><path fill="none" stroke="#000000" d="M 170.773193359375 210.36 L 170.773193359375 227.64" stroke-miterlimit="10"/></g><g transform="translate(-110,-54) scale(1,1)"><path fill="none" stroke="#000000" d="M 161.58337517755683 216.84 L 179.96301154119317 216.84" stroke-miterlimit="10"/></g><g transform="translate(-110,-54) scale(1,1)"><path fill="none" stroke="#000000" d="M 170.773193359375 227.64 L 158.00955699573865 245" stroke-miterlimit="10"/></g><g transform="translate(-110,-54) scale(1,1)"><path fill="none" stroke="#000000" d="M 170.773193359375 227.64 L 183.53682972301135 245" stroke-miterlimit="10"/></g><g transform="translate(-110,-54) scale(1,1)"><g><path fill="none" stroke="none"/><text fill="#000000" stroke="none" font-family="Arial" font-size="13px" font-style="normal" font-weight="bold" text-decoration="none" x="141.869140625" y="265.5">Employee</text></g></g><g transform="translate(-110,-54) scale(1,1)"><g><path fill="none" stroke="none"/><text fill="#000000" stroke="none" font-family="Arial" font-size="13px" font-style="normal" font-weight="normal" text-decoration="none" x="132.5" y="280.5">(from HRMS)</text></g></g><g transform="translate(-110,-54) scale(1,1)"><path fill="#ffff00" stroke="none" d="M 157.36296360085228 345.68 C 157.36296360085228 340.886167936 161.24880592579774 337 166.042236328125 337 C 170.83566673045226 337 174.72150905539772 340.886167936 174.72150905539772 345.68 C 174.72150905539772 350.473832064 170.83566673045226 354.36 166.042236328125 354.36 C 161.24880592579774 354.36 157.36296360085228 350.473832064 157.36296360085228 345.68 Z"/></g><g transform="translate(-110,-54) scale(1,1)"><path fill="none" stroke="#000000" d="M 157.36296360085228 345.68 C 157.36296360085228 340.886167936 161.24880592579774 337 166.042236328125 337 C 170.83566673045226 337 174.72150905539772 340.886167936 174.72150905539772 345.68 C 174.72150905539772 350.473832064 170.83566673045226 354.36 166.042236328125 354.36 C 161.24880592579774 354.36 157.36296360085228 350.473832064 157.36296360085228 345.68 Z" stroke-miterlimit="10"/></g><g transform="translate(-110,-54) scale(1,1)"><path fill="none" stroke="#000000" d="M 166.042236328125 354.36 L 166.042236328125 371.64" stroke-miterlimit="10"/></g><g transform="translate(-110,-54) scale(1,1)"><path fill="none" stroke="#000000" d="M 156.85241814630683 360.84 L 175.23205450994317 360.84" stroke-miterlimit="10"/></g><g transform="translate(-110,-54) scale(1,1)"><path fill="none" stroke="#000000" d="M 166.042236328125 371.64 L 153.27859996448865 389" stroke-miterlimit="10"/></g><g transform="translate(-110,-54) scale(1,1)"><path fill="none" stroke="#000000" d="M 166.042236328125 371.64 L 178.80587269176135 389" stroke-miterlimit="10"/></g><g transform="translate(-110,-54) scale(1,1)"><g><path fill="none" stroke="none"/><text fill="#000000" stroke="none" font-family="Arial" font-size="13px" font-style="normal" font-weight="bold" text-decoration="none" x="127.029541015625" y="409.5">HR Specialist</text></g></g><g transform="translate(-110,-54) scale(1,1)"><g><path fill="none" stroke="none"/><text fill="#000000" stroke="none" font-family="Arial" font-size="13px" font-style="normal" font-weight="normal" text-decoration="none" x="127.76904296875" y="424.5">(from HRMS)</text></g></g><g transform="translate(-110,-54) scale(1,1)"><path fill="none" stroke="#000000" d="M 167 335 L 169 287" stroke-miterlimit="10"/></g><g transform="translate(-110,-54) scale(1,1)"><path fill="#FFFFFF" stroke="none" d="M 176.5655814434988 307.6582181569899 L 169 287 L 159.74210779627848 306.9572400883557"/></g><g transform="translate(-110,-54) scale(1,1)"><path fill="none" stroke="#000000" d="M 176.5655814434988 307.6582181569899 L 169 287 L 159.74210779627848 306.9572400883557 L 176.5655814434988 307.6582181569899" stroke-miterlimit="10"/></g><g transform="translate(-110,-54) scale(1,1)"><path fill="none" stroke="#000000" d="M 215 223 L 539 107" stroke-miterlimit="10"/></g><g transform="translate(-110,-54) scale(1,1)"><path fill="none" stroke="#000000" d="M 530.8509716541605 114.38873040641658 L 539 107 L 528.0131454218391 106.46238817131193" stroke-miterlimit="10"/></g><g transform="translate(-110,-54) scale(1,1)"><path fill="none" stroke="#000000" d="M 213 362 L 592 195" stroke-miterlimit="10"/></g><g transform="translate(-110,-54) scale(1,1)"><path fill="none" stroke="#000000" d="M 584.3975019560264 202.94997003084782 L 592 195 L 581.0027443601065 195.2456997981912" stroke-miterlimit="10"/></g><g transform="translate(-110,-54) scale(1,1)"><path fill="none" stroke="#000000" d="M 213 380 L 535 360" stroke-miterlimit="10"/></g><g transform="translate(-110,-54) scale(1,1)"><path fill="none" stroke="#000000" d="M 525.1178296163955 364.8314292408573 L 535 360 L 524.5959139298793 356.42858668794554" stroke-miterlimit="10"/></g><g transform="translate(-110,-54) scale(1,1)"><path fill="none" stroke="#000000" d="M 213 386 L 543 409" stroke-miterlimit="10"/></g><g transform="translate(-110,-54) scale(1,1)"><path fill="none" stroke="#000000" d="M 532.5692384048909 412.49273711378316 L 543 409 L 533.1545996451002 404.0940758412162" stroke-miterlimit="10"/></g><g transform="translate(-110,-54) scale(1,1)"><path fill="none" stroke="#000000" d="M 213 392 L 562 455" stroke-miterlimit="10"/></g><g transform="translate(-110,-54) scale(1,1)"><path fill="none" stroke="#000000" d="M 551.2511673380407 457.3372198024994 L 562 455 L 552.7467635634182 449.0520915063599" stroke-miterlimit="10"/></g><g transform="translate(-110,-54) scale(1,1)"><path fill="none" stroke="#000000" d="M 213 404 L 609 583" stroke-miterlimit="10"/></g><g transform="translate(-110,-54) scale(1,1)"><path fill="none" stroke="#000000" d="M 598.0055731002188 582.6498898096772 L 609 583 L 601.4733314736447 574.9782008941652" stroke-miterlimit="10"/></g><g transform="translate(-110,-54) scale(1,1)"><path fill="none" stroke="#000000" d="M 213 414 L 585 663" stroke-miterlimit="10"/></g><g transform="translate(-110,-54) scale(1,1)"><path fill="none" stroke="#000000" d="M 574.2131095593163 660.8452390803878 L 585 663 L 578.8961626795698 653.8488705633828" stroke-miterlimit="10"/></g><g transform="translate(-110,-54) scale(1,1)"><path fill="none" stroke="#000000" d="M 213 414 L 585 663" stroke-miterlimit="10"/></g><g transform="translate(-110,-54) scale(1,1)"><path fill="none" stroke="#000000" d="M 574.2131095593163 660.8452390803878 L 585 663 L 578.8961626795698 653.8488705633828" stroke-miterlimit="10"/></g><g transform="translate(-110,-54) scale(1,1)"><path fill="#ffff00" stroke="none" d="M 170.09392063210228 73.68 C 170.09392063210228 68.886167936 173.97976295704774 65 178.773193359375 65 C 183.56662376170226 65 187.45246608664772 68.886167936 187.45246608664772 73.68 C 187.45246608664772 78.473832064 183.56662376170226 82.36 178.773193359375 82.36 C 173.97976295704774 82.36 170.09392063210228 78.473832064 170.09392063210228 73.68 Z"/></g><g transform="translate(-110,-54) scale(1,1)"><path fill="none" stroke="#000000" d="M 170.09392063210228 73.68 C 170.09392063210228 68.886167936 173.97976295704774 65 178.773193359375 65 C 183.56662376170226 65 187.45246608664772 68.886167936 187.45246608664772 73.68 C 187.45246608664772 78.473832064 183.56662376170226 82.36 178.773193359375 82.36 C 173.97976295704774 82.36 170.09392063210228 78.473832064 170.09392063210228 73.68 Z" stroke-miterlimit="10"/></g><g transform="translate(-110,-54) scale(1,1)"><path fill="none" stroke="#000000" d="M 178.773193359375 82.36 L 178.773193359375 99.64" stroke-miterlimit="10"/></g><g transform="translate(-110,-54) scale(1,1)"><path fill="none" stroke="#000000" d="M 169.58337517755683 88.84 L 187.96301154119317 88.84" stroke-miterlimit="10"/></g><g transform="translate(-110,-54) scale(1,1)"><path fill="none" stroke="#000000" d="M 178.773193359375 99.64 L 166.00955699573865 117" stroke-miterlimit="10"/></g><g transform="translate(-110,-54) scale(1,1)"><path fill="none" stroke="#000000" d="M 178.773193359375 99.64 L 191.53682972301135 117" stroke-miterlimit="10"/></g><g transform="translate(-110,-54) scale(1,1)"><g><path fill="none" stroke="none"/><text fill="#000000" stroke="none" font-family="Arial" font-size="13px" font-style="normal" font-weight="bold" text-decoration="none" x="161.431396484375" y="137.5">Guest</text></g></g><g transform="translate(-110,-54) scale(1,1)"><g><path fill="none" stroke="none"/><text fill="#000000" stroke="none" font-family="Arial" font-size="13px" font-style="normal" font-weight="normal" text-decoration="none" x="140.5" y="152.5">(from HRMS)</text></g></g><g transform="translate(-110,-54) scale(1,1)"><path fill="none" stroke="#000000" d="M 223 109 L 447 97" stroke-miterlimit="10"/></g><g transform="translate(-110,-54) scale(1,1)"><path fill="none" stroke="#000000" d="M 437.07706372802096 101.74713974328155 L 447 97 L 436.62668976908714 93.34015917651622" stroke-miterlimit="10"/></g><g transform="translate(-110,-54) scale(1,1)"><path fill="#C0C0C0" stroke="none" d="M 583 288 C 583 278.6111584 616.1309248 271 657 271 C 697.8690752 271 731 278.6111584 731 288 C 731 297.3888416 697.8690752 305 657 305 C 616.1309248 305 583 297.3888416 583 288 Z" opacity="0.2"/></g><g transform="translate(-110,-54) scale(1,1)"><path fill="#ffff00" stroke="none" d="M 576 281 C 576 271.6111584 609.1309248 264 650 264 C 690.8690752 264 724 271.6111584 724 281 C 724 290.3888416 690.8690752 298 650 298 C 609.1309248 298 576 290.3888416 576 281 Z"/></g><g transform="translate(-110,-54) scale(1,1)"><path fill="none" stroke="#000000" d="M 576 281 C 576 271.6111584 609.1309248 264 650 264 C 690.8690752 264 724 271.6111584 724 281 C 724 290.3888416 690.8690752 298 650 298 C 609.1309248 298 576 290.3888416 576 281 Z" stroke-miterlimit="10"/></g><g transform="translate(-110,-54) scale(1,1)"><g><path fill="none" stroke="none"/><text fill="#000000" stroke="none" font-family="Arial" font-size="13px" font-style="normal" font-weight="bold" text-decoration="none" x="612.77734375" y="288">set unit head</text></g></g><g transform="translate(-110,-54) scale(1,1)"><path fill="none" stroke="#000000" d="M 213 373 L 575 297" stroke-miterlimit="10"/></g><g transform="translate(-110,-54) scale(1,1)"><path fill="none" stroke="#000000" d="M 565.9190626610213 303.20778358559176 L 575 297 L 564.1892417585676 294.9683734975885" stroke-miterlimit="10"/></g><g transform="translate(-110,-54) scale(1,1)"><path fill="#C0C0C0" stroke="none" d="M 599 536 C 599 526.6111584 647.129384 519 706.5 519 C 765.870616 519 814 526.6111584 814 536 C 814 545.3888416 765.870616 553 706.5 553 C 647.129384 553 599 545.3888416 599 536 Z" opacity="0.2"/></g><g transform="translate(-110,-54) scale(1,1)"><path fill="#ffff00" stroke="none" d="M 592 529 C 592 519.6111584 640.129384 512 699.5 512 C 758.870616 512 807 519.6111584 807 529 C 807 538.3888416 758.870616 546 699.5 546 C 640.129384 546 592 538.3888416 592 529 Z"/></g><g transform="translate(-110,-54) scale(1,1)"><path fill="none" stroke="#000000" d="M 592 529 C 592 519.6111584 640.129384 512 699.5 512 C 758.870616 512 807 519.6111584 807 529 C 807 538.3888416 758.870616 546 699.5 546 C 640.129384 546 592 538.3888416 592 529 Z" stroke-miterlimit="10"/></g><g transform="translate(-110,-54) scale(1,1)"><g><path fill="none" stroke="none"/><text fill="#000000" stroke="none" font-family="Arial" font-size="13px" font-style="normal" font-weight="bold" text-decoration="none" x="634.471435546875" y="536">remove unit subsidiary</text></g></g><g transform="translate(-110,-54) scale(1,1)"><path fill="none" stroke="#000000" d="M 213 396 L 633 511" stroke-miterlimit="10"/></g><g transform="translate(-110,-54) scale(1,1)"><path fill="none" stroke="#000000" d="M 622.0864301200107 512.3762239914316 L 633 511 L 624.3098034141334 504.2560780476793" stroke-miterlimit="10"/></g><g transform="translate(-110,-54) scale(1,1)"><path fill="#ffff00" stroke="none" d="M 912.2870358664773 321.68 C 912.2870358664773 316.886167936 916.1728781914227 313 920.96630859375 313 C 925.7597389960773 313 929.6455813210227 316.886167936 929.6455813210227 321.68 C 929.6455813210227 326.473832064 925.7597389960773 330.36 920.96630859375 330.36 C 916.1728781914227 330.36 912.2870358664773 326.473832064 912.2870358664773 321.68 Z"/></g><g transform="translate(-110,-54) scale(1,1)"><path fill="none" stroke="#000000" d="M 912.2870358664773 321.68 C 912.2870358664773 316.886167936 916.1728781914227 313 920.96630859375 313 C 925.7597389960773 313 929.6455813210227 316.886167936 929.6455813210227 321.68 C 929.6455813210227 326.473832064 925.7597389960773 330.36 920.96630859375 330.36 C 916.1728781914227 330.36 912.2870358664773 326.473832064 912.2870358664773 321.68 Z" stroke-miterlimit="10"/></g><g transform="translate(-110,-54) scale(1,1)"><path fill="none" stroke="#000000" d="M 920.96630859375 330.36 L 920.96630859375 347.64" stroke-miterlimit="10"/></g><g transform="translate(-110,-54) scale(1,1)"><path fill="none" stroke="#000000" d="M 911.7764904119318 336.84 L 930.1561267755682 336.84" stroke-miterlimit="10"/></g><g transform="translate(-110,-54) scale(1,1)"><path fill="none" stroke="#000000" d="M 920.96630859375 347.64 L 908.2026722301136 365" stroke-miterlimit="10"/></g><g transform="translate(-110,-54) scale(1,1)"><path fill="none" stroke="#000000" d="M 920.96630859375 347.64 L 933.7299449573864 365" stroke-miterlimit="10"/></g><g transform="translate(-110,-54) scale(1,1)"><g><path fill="none" stroke="none"/><text fill="#000000" stroke="none" font-family="Arial" font-size="13px" font-style="normal" font-weight="bold" text-decoration="none" x="834.25732421875" y="385.5">Account Management System</text></g></g><g transform="translate(-110,-54) scale(1,1)"><g><path fill="none" stroke="none"/><text fill="#000000" stroke="none" font-family="Arial" font-size="13px" font-style="normal" font-weight="normal" text-decoration="none" x="882.693115234375" y="400.5">(from HRMS)</text></g></g><g transform="translate(-110,-54) scale(1,1)"><path fill="#C0C0C0" stroke="none" d="M 847 216 C 847 206.6111584 873.862912 199 907 199 C 940.137088 199 967 206.6111584 967 216 C 967 225.3888416 940.137088 233 907 233 C 873.862912 233 847 225.3888416 847 216 Z" opacity="0.2"/></g><g transform="translate(-110,-54) scale(1,1)"><path fill="#ffff00" stroke="none" d="M 840 209 C 840 199.6111584 866.862912 192 900 192 C 933.137088 192 960 199.6111584 960 209 C 960 218.3888416 933.137088 226 900 226 C 866.862912 226 840 218.3888416 840 209 Z"/></g><g transform="translate(-110,-54) scale(1,1)"><path fill="none" stroke="#000000" d="M 840 209 C 840 199.6111584 866.862912 192 900 192 C 933.137088 192 960 199.6111584 960 209 C 960 218.3888416 933.137088 226 900 226 C 866.862912 226 840 218.3888416 840 209 Z" stroke-miterlimit="10"/></g><g transform="translate(-110,-54) scale(1,1)"><g><path fill="none" stroke="none"/><text fill="#000000" stroke="none" font-family="Arial" font-size="13px" font-style="normal" font-weight="bold" text-decoration="none" x="865.675048828125" y="216">link account</text></g></g><g transform="translate(-110,-54) scale(1,1)"><path fill="none" stroke="#000000" d="M 779 194 L 839 202" stroke-miterlimit="10" stroke-dasharray="3"/></g><g transform="translate(-110,-54) scale(1,1)"><path fill="none" stroke="#000000" d="M 828.3701276091327 204.82945453292294 L 839 202 L 829.4828186619812 196.48427163655893" stroke-miterlimit="10"/></g><g transform="translate(-110,-54) scale(1,1)"><g><path fill="none" stroke="none"/><text fill="#000000" stroke="none" font-family="Arial" font-size="13px" font-style="normal" font-weight="normal" text-decoration="none" x="784.5" y="174.5">«include»</text></g></g><g transform="translate(-110,-54) scale(1,1)"><path fill="none" stroke="#000000" d="M 902 227 L 914 311" stroke-miterlimit="10"/></g><g transform="translate(-110,-54) scale(1,1)"><path fill="none" stroke="#000000" d="M 908.3955707675103 301.53478088061274 L 914 311 L 916.7299907097618 300.3441494602911" stroke-miterlimit="10"/></g></g></svg>