<svg version="1.1" xmlns="http://www.w3.org/2000/svg" xmlns:xlink="http://www.w3.org/1999/xlink" width="1557" height="890"><defs/><g><g transform="translate(-54,-14) scale(1,1)"><path fill="#C0C0C0" stroke="none" d="M 967 88 C 967 78.6111584 997.6684912 71 1035.5 71 C 1073.3315088 71 1104 78.6111584 1104 88 C 1104 97.3888416 1073.3315088 105 1035.5 105 C 997.6684912 105 967 97.3888416 967 88 Z" opacity="0.2"/></g><g transform="translate(-54,-14) scale(1,1)"><path fill="#ffff00" stroke="none" d="M 960 81 C 960 71.6111584 990.6684912 64 1028.5 64 C 1066.3315088 64 1097 71.6111584 1097 81 C 1097 90.3888416 1066.3315088 98 1028.5 98 C 990.6684912 98 960 90.3888416 960 81 Z"/></g><g transform="translate(-54,-14) scale(1,1)"><path fill="none" stroke="#000000" d="M 960 81 C 960 71.6111584 990.6684912 64 1028.5 64 C 1066.3315088 64 1097 71.6111584 1097 81 C 1097 90.3888416 1066.3315088 98 1028.5 98 C 990.6684912 98 960 90.3888416 960 81 Z" stroke-miterlimit="10"/></g><g transform="translate(-54,-14) scale(1,1)"><g><path fill="none" stroke="none"/><text fill="#000000" stroke="none" font-family="Arial" font-size="13px" font-style="normal" font-weight="bold" text-decoration="none" x="987.671875" y="88">hire employee</text></g></g><g transform="translate(-54,-14) scale(1,1)"><path fill="#C0C0C0" stroke="none" d="M 983 168 C 983 158.6111584 1012.3253456 151 1048.5 151 C 1084.6746544 151 1114 158.6111584 1114 168 C 1114 177.3888416 1084.6746544 185 1048.5 185 C 1012.3253456 185 983 177.3888416 983 168 Z" opacity="0.2"/></g><g transform="translate(-54,-14) scale(1,1)"><path fill="#ffff00" stroke="none" d="M 976 161 C 976 151.6111584 1005.3253456 144 1041.5 144 C 1077.6746544 144 1107 151.6111584 1107 161 C 1107 170.3888416 1077.6746544 178 1041.5 178 C 1005.3253456 178 976 170.3888416 976 161 Z"/></g><g transform="translate(-54,-14) scale(1,1)"><path fill="none" stroke="#000000" d="M 976 161 C 976 151.6111584 1005.3253456 144 1041.5 144 C 1077.6746544 144 1107 151.6111584 1107 161 C 1107 170.3888416 1077.6746544 178 1041.5 178 C 1005.3253456 178 976 170.3888416 976 161 Z" stroke-miterlimit="10"/></g><g transform="translate(-54,-14) scale(1,1)"><g><path fill="none" stroke="none"/><text fill="#000000" stroke="none" font-family="Arial" font-size="13px" font-style="normal" font-weight="bold" text-decoration="none" x="1002.48095703125" y="168">fire employee</text></g></g><g transform="translate(-54,-14) scale(1,1)"><path fill="#C0C0C0" stroke="none" d="M 975 312 C 975 302.6111584 1019.77152 295 1075 295 C 1130.22848 295 1175 302.6111584 1175 312 C 1175 321.3888416 1130.22848 329 1075 329 C 1019.77152 329 975 321.3888416 975 312 Z" opacity="0.2"/></g><g transform="translate(-54,-14) scale(1,1)"><path fill="#ffff00" stroke="none" d="M 968 305 C 968 295.6111584 1012.77152 288 1068 288 C 1123.22848 288 1168 295.6111584 1168 305 C 1168 314.3888416 1123.22848 322 1068 322 C 1012.77152 322 968 314.3888416 968 305 Z"/></g><g transform="translate(-54,-14) scale(1,1)"><path fill="none" stroke="#000000" d="M 968 305 C 968 295.6111584 1012.77152 288 1068 288 C 1123.22848 288 1168 295.6111584 1168 305 C 1168 314.3888416 1123.22848 322 1068 322 C 1012.77152 322 968 314.3888416 968 305 Z" stroke-miterlimit="10"/></g><g transform="translate(-54,-14) scale(1,1)"><g><path fill="none" stroke="none"/><text fill="#000000" stroke="none" font-family="Arial" font-size="13px" font-style="normal" font-weight="bold" text-decoration="none" x="1005.85009765625" y="312">grant employee leave</text></g></g><g transform="translate(-54,-14) scale(1,1)"><path fill="#C0C0C0" stroke="none" d="M 983 368 C 983 358.6111584 1022.6227952 351 1071.5 351 C 1120.3772048 351 1160 358.6111584 1160 368 C 1160 377.3888416 1120.3772048 385 1071.5 385 C 1022.6227952 385 983 377.3888416 983 368 Z" opacity="0.2"/></g><g transform="translate(-54,-14) scale(1,1)"><path fill="#ffff00" stroke="none" d="M 976 361 C 976 351.6111584 1015.6227952 344 1064.5 344 C 1113.3772048 344 1153 351.6111584 1153 361 C 1153 370.3888416 1113.3772048 378 1064.5 378 C 1015.6227952 378 976 370.3888416 976 361 Z"/></g><g transform="translate(-54,-14) scale(1,1)"><path fill="none" stroke="#000000" d="M 976 361 C 976 351.6111584 1015.6227952 344 1064.5 344 C 1113.3772048 344 1153 351.6111584 1153 361 C 1153 370.3888416 1113.3772048 378 1064.5 378 C 1015.6227952 378 976 370.3888416 976 361 Z" stroke-miterlimit="10"/></g><g transform="translate(-54,-14) scale(1,1)"><g><path fill="none" stroke="none"/><text fill="#000000" stroke="none" font-family="Arial" font-size="13px" font-style="normal" font-weight="bold" text-decoration="none" x="1010.66552734375" y="368">promote employee</text></g></g><g transform="translate(-54,-14) scale(1,1)"><path fill="#C0C0C0" stroke="none" d="M 983 432 C 983 422.6111584 1020.6080768 415 1067 415 C 1113.3919232 415 1151 422.6111584 1151 432 C 1151 441.3888416 1113.3919232 449 1067 449 C 1020.6080768 449 983 441.3888416 983 432 Z" opacity="0.2"/></g><g transform="translate(-54,-14) scale(1,1)"><path fill="#ffff00" stroke="none" d="M 976 425 C 976 415.6111584 1013.6080768 408 1060 408 C 1106.3919232 408 1144 415.6111584 1144 425 C 1144 434.3888416 1106.3919232 442 1060 442 C 1013.6080768 442 976 434.3888416 976 425 Z"/></g><g transform="translate(-54,-14) scale(1,1)"><path fill="none" stroke="#000000" d="M 976 425 C 976 415.6111584 1013.6080768 408 1060 408 C 1106.3919232 408 1144 415.6111584 1144 425 C 1144 434.3888416 1106.3919232 442 1060 442 C 1013.6080768 442 976 434.3888416 976 425 Z" stroke-miterlimit="10"/></g><g transform="translate(-54,-14) scale(1,1)"><g><path fill="none" stroke="none"/><text fill="#000000" stroke="none" font-family="Arial" font-size="13px" font-style="normal" font-weight="bold" text-decoration="none" x="1008.330078125" y="432">demote employee</text></g></g><g transform="translate(-54,-14) scale(1,1)"><path fill="#C0C0C0" stroke="none" d="M 943 504 C 943 494.6111584 981.2796496 487 1028.5 487 C 1075.7203504 487 1114 494.6111584 1114 504 C 1114 513.3888416 1075.7203504 521 1028.5 521 C 981.2796496 521 943 513.3888416 943 504 Z" opacity="0.2"/></g><g transform="translate(-54,-14) scale(1,1)"><path fill="#ffff00" stroke="none" d="M 936 497 C 936 487.6111584 974.2796496 480 1021.5 480 C 1068.7203504 480 1107 487.6111584 1107 497 C 1107 506.3888416 1068.7203504 514 1021.5 514 C 974.2796496 514 936 506.3888416 936 497 Z"/></g><g transform="translate(-54,-14) scale(1,1)"><path fill="none" stroke="#000000" d="M 936 497 C 936 487.6111584 974.2796496 480 1021.5 480 C 1068.7203504 480 1107 487.6111584 1107 497 C 1107 506.3888416 1068.7203504 514 1021.5 514 C 974.2796496 514 936 506.3888416 936 497 Z" stroke-miterlimit="10"/></g><g transform="translate(-54,-14) scale(1,1)"><g><path fill="none" stroke="none"/><text fill="#000000" stroke="none" font-family="Arial" font-size="13px" font-style="normal" font-weight="bold" text-decoration="none" x="969.474609375" y="504">transfer employee</text></g></g><g transform="translate(-54,-14) scale(1,1)"><path fill="#C0C0C0" stroke="none" d="M 943 248 C 943 238.6111584 1002.5461216 231 1076 231 C 1149.4538784000001 231 1209 238.6111584 1209 248 C 1209 257.3888416 1149.4538784000001 265 1076 265 C 1002.5461216 265 943 257.3888416 943 248 Z" opacity="0.2"/></g><g transform="translate(-54,-14) scale(1,1)"><path fill="#ffff00" stroke="none" d="M 936 241 C 936 231.6111584 995.5461216 224 1069 224 C 1142.4538784000001 224 1202 231.6111584 1202 241 C 1202 250.3888416 1142.4538784000001 258 1069 258 C 995.5461216 258 936 250.3888416 936 241 Z"/></g><g transform="translate(-54,-14) scale(1,1)"><path fill="none" stroke="#000000" d="M 936 241 C 936 231.6111584 995.5461216 224 1069 224 C 1142.4538784000001 224 1202 231.6111584 1202 241 C 1202 250.3888416 1142.4538784000001 258 1069 258 C 995.5461216 258 936 250.3888416 936 241 Z" stroke-miterlimit="10"/></g><g transform="translate(-54,-14) scale(1,1)"><g><path fill="none" stroke="none"/><text fill="#000000" stroke="none" font-family="Arial" font-size="13px" font-style="normal" font-weight="bold" text-decoration="none" x="995.6337890625" y="248">add employee dependent</text></g></g><g transform="translate(-54,-14) scale(1,1)"><path fill="#C0C0C0" stroke="none" d="M 1255 48 C 1255 38.6111584 1304.0248144 31 1364.5 31 C 1424.9751856 31 1474 38.6111584 1474 48 C 1474 57.3888416 1424.9751856 65 1364.5 65 C 1304.0248144 65 1255 57.3888416 1255 48 Z" opacity="0.2"/></g><g transform="translate(-54,-14) scale(1,1)"><path fill="#ffff00" stroke="none" d="M 1248 41 C 1248 31.6111584 1297.0248144 24 1357.5 24 C 1417.9751856 24 1467 31.6111584 1467 41 C 1467 50.3888416 1417.9751856 58 1357.5 58 C 1297.0248144 58 1248 50.3888416 1248 41 Z"/></g><g transform="translate(-54,-14) scale(1,1)"><path fill="none" stroke="#000000" d="M 1248 41 C 1248 31.6111584 1297.0248144 24 1357.5 24 C 1417.9751856 24 1467 31.6111584 1467 41 C 1467 50.3888416 1417.9751856 58 1357.5 58 C 1297.0248144 58 1248 50.3888416 1248 41 Z" stroke-miterlimit="10"/></g><g transform="translate(-54,-14) scale(1,1)"><g><path fill="none" stroke="none"/><text fill="#000000" stroke="none" font-family="Arial" font-size="13px" font-style="normal" font-weight="bold" text-decoration="none" x="1289.215087890625" y="48">create employee record</text></g></g><g transform="translate(-54,-14) scale(1,1)"><path fill="none" stroke="#000000" d="M 1098 72 L 1247 54" stroke-miterlimit="10" stroke-dasharray="3"/></g><g transform="translate(-54,-14) scale(1,1)"><path fill="none" stroke="#000000" d="M 1237.4155416596313 59.39797724353642 L 1247 54 L 1236.40581819993 51.0397108271206" stroke-miterlimit="10"/></g><g transform="translate(-54,-14) scale(1,1)"><g><path fill="none" stroke="none"/><text fill="#000000" stroke="none" font-family="Arial" font-size="13px" font-style="normal" font-weight="normal" text-decoration="none" x="1140.5" y="39.5">«include»</text></g></g><g transform="translate(-54,-14) scale(1,1)"><path fill="#C0C0C0" stroke="none" d="M 1383 328 C 1383 318.6111584 1433.36796 311 1495.5 311 C 1557.63204 311 1608 318.6111584 1608 328 C 1608 337.3888416 1557.63204 345 1495.5 345 C 1433.36796 345 1383 337.3888416 1383 328 Z" opacity="0.2"/></g><g transform="translate(-54,-14) scale(1,1)"><path fill="#ffff00" stroke="none" d="M 1376 321 C 1376 311.6111584 1426.36796 304 1488.5 304 C 1550.63204 304 1601 311.6111584 1601 321 C 1601 330.3888416 1550.63204 338 1488.5 338 C 1426.36796 338 1376 330.3888416 1376 321 Z"/></g><g transform="translate(-54,-14) scale(1,1)"><path fill="none" stroke="#000000" d="M 1376 321 C 1376 311.6111584 1426.36796 304 1488.5 304 C 1550.63204 304 1601 311.6111584 1601 321 C 1601 330.3888416 1550.63204 338 1488.5 338 C 1426.36796 338 1376 330.3888416 1376 321 Z" stroke-miterlimit="10"/></g><g transform="translate(-54,-14) scale(1,1)"><g><path fill="none" stroke="none"/><text fill="#000000" stroke="none" font-family="Arial" font-size="13px" font-style="normal" font-weight="bold" text-decoration="none" x="1418.399658203125" y="328">update employee record</text></g></g><g transform="translate(-54,-14) scale(1,1)"><path fill="none" stroke="#000000" d="M 1169 309 L 1375 317" stroke-miterlimit="10" stroke-dasharray="3"/></g><g transform="translate(-54,-14) scale(1,1)"><path fill="none" stroke="#000000" d="M 1364.681626638415 320.81197733085276 L 1375 317 L 1365.0083332048332 312.39928324558406" stroke-miterlimit="10"/></g><g transform="translate(-54,-14) scale(1,1)"><g><path fill="none" stroke="none"/><text fill="#000000" stroke="none" font-family="Arial" font-size="13px" font-style="normal" font-weight="normal" text-decoration="none" x="1245.5" y="289.5">«include»</text></g></g><g transform="translate(-54,-14) scale(1,1)"><path fill="none" stroke="#000000" d="M 1154 353 L 1375 332" stroke-miterlimit="10" stroke-dasharray="3"/></g><g transform="translate(-54,-14) scale(1,1)"><path fill="none" stroke="#000000" d="M 1365.281103378755 337.15199461039646 L 1375 332 L 1364.484691967819 328.7707126191146" stroke-miterlimit="10"/></g><g transform="translate(-54,-14) scale(1,1)"><g><path fill="none" stroke="none"/><text fill="#000000" stroke="none" font-family="Arial" font-size="13px" font-style="normal" font-weight="normal" text-decoration="none" x="1233.5" y="318.5">«include»</text></g></g><g transform="translate(-54,-14) scale(1,1)"><path fill="none" stroke="#000000" d="M 1134 407 L 1414 339" stroke-miterlimit="10" stroke-dasharray="3"/></g><g transform="translate(-54,-14) scale(1,1)"><path fill="none" stroke="#000000" d="M 1405.1178180081354 345.48897858398334 L 1414 339 L 1403.1309481221106 337.30774964152835" stroke-miterlimit="10"/></g><g transform="translate(-54,-14) scale(1,1)"><g><path fill="none" stroke="none"/><text fill="#000000" stroke="none" font-family="Arial" font-size="13px" font-style="normal" font-weight="normal" text-decoration="none" x="1238.5" y="349.5">«include»</text></g></g><g transform="translate(-54,-14) scale(1,1)"><path fill="none" stroke="#000000" d="M 1069 479 L 1440 339" stroke-miterlimit="10" stroke-dasharray="3"/></g><g transform="translate(-54,-14) scale(1,1)"><path fill="none" stroke="#000000" d="M 1431.9779847070815 346.52643811109755 L 1440 339 L 1429.0055831610573 338.6495740141331" stroke-miterlimit="10"/></g><g transform="translate(-54,-14) scale(1,1)"><g><path fill="none" stroke="none"/><text fill="#000000" stroke="none" font-family="Arial" font-size="13px" font-style="normal" font-weight="normal" text-decoration="none" x="1215.5" y="386.5">«include»</text></g></g><g transform="translate(-54,-14) scale(1,1)"><path fill="#C0C0C0" stroke="none" d="M 71 512 C 71 502.6111584 130.9938368 495 205 495 C 279.0061632 495 339 502.6111584 339 512 C 339 521.3888416 279.0061632 529 205 529 C 130.9938368 529 71 521.3888416 71 512 Z" opacity="0.2"/></g><g transform="translate(-54,-14) scale(1,1)"><path fill="#ffff00" stroke="none" d="M 64 505 C 64 495.6111584 123.9938368 488 198 488 C 272.0061632 488 332 495.6111584 332 505 C 332 514.3888416 272.0061632 522 198 522 C 123.9938368 522 64 514.3888416 64 505 Z"/></g><g transform="translate(-54,-14) scale(1,1)"><path fill="none" stroke="#000000" d="M 64 505 C 64 495.6111584 123.9938368 488 198 488 C 272.0061632 488 332 495.6111584 332 505 C 332 514.3888416 272.0061632 522 198 522 C 123.9938368 522 64 514.3888416 64 505 Z" stroke-miterlimit="10"/></g><g transform="translate(-54,-14) scale(1,1)"><g><path fill="none" stroke="none"/><text fill="#000000" stroke="none" font-family="Arial" font-size="13px" font-style="normal" font-weight="bold" text-decoration="none" x="114.541015625" y="512">write performance evaluation</text></g></g><g transform="translate(-54,-14) scale(1,1)"><path fill="#C0C0C0" stroke="none" d="M 887 672 C 887 662.6111584 934.4578112 655 993 655 C 1051.5421888 655 1099 662.6111584 1099 672 C 1099 681.3888416 1051.5421888 689 993 689 C 934.4578112 689 887 681.3888416 887 672 Z" opacity="0.2"/></g><g transform="translate(-54,-14) scale(1,1)"><path fill="#ffff00" stroke="none" d="M 880 665 C 880 655.6111584 927.4578112 648 986 648 C 1044.5421888 648 1092 655.6111584 1092 665 C 1092 674.3888416 1044.5421888 682 986 682 C 927.4578112 682 880 674.3888416 880 665 Z"/></g><g transform="translate(-54,-14) scale(1,1)"><path fill="none" stroke="#000000" d="M 880 665 C 880 655.6111584 927.4578112 648 986 648 C 1044.5421888 648 1092 655.6111584 1092 665 C 1092 674.3888416 1044.5421888 682 986 682 C 927.4578112 682 880 674.3888416 880 665 Z" stroke-miterlimit="10"/></g><g transform="translate(-54,-14) scale(1,1)"><g><path fill="none" stroke="none"/><text fill="#000000" stroke="none" font-family="Arial" font-size="13px" font-style="normal" font-weight="bold" text-decoration="none" x="921.685546875" y="672">assign payroll account</text></g></g><g transform="translate(-54,-14) scale(1,1)"><path fill="#C0C0C0" stroke="none" d="M 935 800 C 935 790.6111584 964.9969184 783 1002 783 C 1039.0030816 783 1069 790.6111584 1069 800 C 1069 809.3888416 1039.0030816 817 1002 817 C 964.9969184 817 935 809.3888416 935 800 Z" opacity="0.2"/></g><g transform="translate(-54,-14) scale(1,1)"><path fill="#ffff00" stroke="none" d="M 928 793 C 928 783.6111584 957.9969184 776 995 776 C 1032.0030816 776 1062 783.6111584 1062 793 C 1062 802.3888416 1032.0030816 810 995 810 C 957.9969184 810 928 802.3888416 928 793 Z"/></g><g transform="translate(-54,-14) scale(1,1)"><path fill="none" stroke="#000000" d="M 928 793 C 928 783.6111584 957.9969184 776 995 776 C 1032.0030816 776 1062 783.6111584 1062 793 C 1062 802.3888416 1032.0030816 810 995 810 C 957.9969184 810 928 802.3888416 928 793 Z" stroke-miterlimit="10"/></g><g transform="translate(-54,-14) scale(1,1)"><g><path fill="none" stroke="none"/><text fill="#000000" stroke="none" font-family="Arial" font-size="13px" font-style="normal" font-weight="bold" text-decoration="none" x="954.530517578125" y="800">pay employee</text></g></g><g transform="translate(-54,-14) scale(1,1)"><path fill="none" stroke="#000000" d="M 1163 259 L 1394 303" stroke-miterlimit="10" stroke-dasharray="3"/></g><g transform="translate(-54,-14) scale(1,1)"><path fill="none" stroke="#000000" d="M 1383.2291608088153 305.23361212336397 L 1394 303 L 1384.8044642898724 296.96326884781456" stroke-miterlimit="10"/></g><g transform="translate(-54,-14) scale(1,1)"><g><path fill="none" stroke="none"/><text fill="#000000" stroke="none" font-family="Arial" font-size="13px" font-style="normal" font-weight="normal" text-decoration="none" x="1255.5" y="257.5">«include»</text></g></g><g transform="translate(-54,-14) scale(1,1)"><path fill="none" stroke="#000000" d="M 1014 775 L 1469 339" stroke-miterlimit="10" stroke-dasharray="3"/></g><g transform="translate(-54,-14) scale(1,1)"><path fill="none" stroke="#000000" d="M 1464.574775783599 349.0706201712992 L 1469 339 L 1458.7498901344322 342.9918977621917" stroke-miterlimit="10"/></g><g transform="translate(-54,-14) scale(1,1)"><g><path fill="none" stroke="none"/><text fill="#000000" stroke="none" font-family="Arial" font-size="13px" font-style="normal" font-weight="normal" text-decoration="none" x="1192.5" y="541.5">«include»</text></g></g><g transform="translate(-54,-14) scale(1,1)"><path fill="#ffff00" stroke="none" d="M 589.3629636008523 425.68 C 589.3629636008523 420.886167936 593.2488059257977 417 598.042236328125 417 C 602.8356667304523 417 606.7215090553977 420.886167936 606.7215090553977 425.68 C 606.7215090553977 430.473832064 602.8356667304523 434.36 598.042236328125 434.36 C 593.2488059257977 434.36 589.3629636008523 430.473832064 589.3629636008523 425.68 Z"/></g><g transform="translate(-54,-14) scale(1,1)"><path fill="none" stroke="#000000" d="M 589.3629636008523 425.68 C 589.3629636008523 420.886167936 593.2488059257977 417 598.042236328125 417 C 602.8356667304523 417 606.7215090553977 420.886167936 606.7215090553977 425.68 C 606.7215090553977 430.473832064 602.8356667304523 434.36 598.042236328125 434.36 C 593.2488059257977 434.36 589.3629636008523 430.473832064 589.3629636008523 425.68 Z" stroke-miterlimit="10"/></g><g transform="translate(-54,-14) scale(1,1)"><path fill="none" stroke="#000000" d="M 598.042236328125 434.36 L 598.042236328125 451.64" stroke-miterlimit="10"/></g><g transform="translate(-54,-14) scale(1,1)"><path fill="none" stroke="#000000" d="M 588.8524181463068 440.84 L 607.2320545099432 440.84" stroke-miterlimit="10"/></g><g transform="translate(-54,-14) scale(1,1)"><path fill="none" stroke="#000000" d="M 598.042236328125 451.64 L 585.2785999644886 469" stroke-miterlimit="10"/></g><g transform="translate(-54,-14) scale(1,1)"><path fill="none" stroke="#000000" d="M 598.042236328125 451.64 L 610.8058726917614 469" stroke-miterlimit="10"/></g><g transform="translate(-54,-14) scale(1,1)"><g><path fill="none" stroke="none"/><text fill="#000000" stroke="none" font-family="Arial" font-size="13px" font-style="normal" font-weight="bold" text-decoration="none" x="559.029541015625" y="489.5">HR Specialist</text></g></g><g transform="translate(-54,-14) scale(1,1)"><g><path fill="none" stroke="none"/><text fill="#000000" stroke="none" font-family="Arial" font-size="13px" font-style="normal" font-weight="normal" text-decoration="none" x="559.76904296875" y="504.5">(from HRMS)</text></g></g><g transform="translate(-54,-14) scale(1,1)"><path fill="#ffff00" stroke="none" d="M 594.0939206321023 249.68 C 594.0939206321023 244.886167936 597.9797629570477 241 602.773193359375 241 C 607.5666237617023 241 611.4524660866477 244.886167936 611.4524660866477 249.68 C 611.4524660866477 254.47383206400002 607.5666237617023 258.36 602.773193359375 258.36 C 597.9797629570477 258.36 594.0939206321023 254.47383206400002 594.0939206321023 249.68 Z"/></g><g transform="translate(-54,-14) scale(1,1)"><path fill="none" stroke="#000000" d="M 594.0939206321023 249.68 C 594.0939206321023 244.886167936 597.9797629570477 241 602.773193359375 241 C 607.5666237617023 241 611.4524660866477 244.886167936 611.4524660866477 249.68 C 611.4524660866477 254.47383206400002 607.5666237617023 258.36 602.773193359375 258.36 C 597.9797629570477 258.36 594.0939206321023 254.47383206400002 594.0939206321023 249.68 Z" stroke-miterlimit="10"/></g><g transform="translate(-54,-14) scale(1,1)"><path fill="none" stroke="#000000" d="M 602.773193359375 258.36 L 602.773193359375 275.64" stroke-miterlimit="10"/></g><g transform="translate(-54,-14) scale(1,1)"><path fill="none" stroke="#000000" d="M 593.5833751775568 264.84 L 611.9630115411932 264.84" stroke-miterlimit="10"/></g><g transform="translate(-54,-14) scale(1,1)"><path fill="none" stroke="#000000" d="M 602.773193359375 275.64 L 590.0095569957386 293" stroke-miterlimit="10"/></g><g transform="translate(-54,-14) scale(1,1)"><path fill="none" stroke="#000000" d="M 602.773193359375 275.64 L 615.5368297230114 293" stroke-miterlimit="10"/></g><g transform="translate(-54,-14) scale(1,1)"><g><path fill="none" stroke="none"/><text fill="#000000" stroke="none" font-family="Arial" font-size="13px" font-style="normal" font-weight="bold" text-decoration="none" x="573.869140625" y="313.5">Employee</text></g></g><g transform="translate(-54,-14) scale(1,1)"><g><path fill="none" stroke="none"/><text fill="#000000" stroke="none" font-family="Arial" font-size="13px" font-style="normal" font-weight="normal" text-decoration="none" x="564.5" y="328.5">(from HRMS)</text></g></g><g transform="translate(-54,-14) scale(1,1)"><path fill="none" stroke="#000000" d="M 599 415 L 601 335" stroke-miterlimit="10"/></g><g transform="translate(-54,-14) scale(1,1)"><path fill="#FFFFFF" stroke="none" d="M 608.9084307705682 355.52941116415985 L 601 335 L 592.0756191784689 355.10859087435733"/></g><g transform="translate(-54,-14) scale(1,1)"><path fill="none" stroke="#000000" d="M 608.9084307705682 355.52941116415985 L 601 335 L 592.0756191784689 355.10859087435733 L 608.9084307705682 355.52941116415985" stroke-miterlimit="10"/></g><g transform="translate(-54,-14) scale(1,1)"><path fill="none" stroke="#000000" d="M 645 502 L 973 775" stroke-miterlimit="10"/></g><g transform="translate(-54,-14) scale(1,1)"><path fill="none" stroke="#000000" d="M 962.4959877271124 771.7341576628647 L 973 775 L 967.8818409550489 765.2632424292999" stroke-miterlimit="10"/></g><g transform="translate(-54,-14) scale(1,1)"><path fill="none" stroke="#000000" d="M 645 488 L 951 647" stroke-miterlimit="10"/></g><g transform="translate(-54,-14) scale(1,1)"><path fill="none" stroke="#000000" d="M 940.0411376257453 646.049560384799 L 951 647 L 943.9229763980914 638.5788518040573" stroke-miterlimit="10"/></g><g transform="translate(-54,-14) scale(1,1)"><path fill="#ffff00" stroke="none" d="M 434.92839328835225 417.68 C 434.92839328835225 412.886167936 438.81423561329774 409 443.607666015625 409 C 448.40109641795226 409 452.28693874289775 412.886167936 452.28693874289775 417.68 C 452.28693874289775 422.473832064 448.40109641795226 426.36 443.607666015625 426.36 C 438.81423561329774 426.36 434.92839328835225 422.473832064 434.92839328835225 417.68 Z"/></g><g transform="translate(-54,-14) scale(1,1)"><path fill="none" stroke="#000000" d="M 434.92839328835225 417.68 C 434.92839328835225 412.886167936 438.81423561329774 409 443.607666015625 409 C 448.40109641795226 409 452.28693874289775 412.886167936 452.28693874289775 417.68 C 452.28693874289775 422.473832064 448.40109641795226 426.36 443.607666015625 426.36 C 438.81423561329774 426.36 434.92839328835225 422.473832064 434.92839328835225 417.68 Z" stroke-miterlimit="10"/></g><g transform="translate(-54,-14) scale(1,1)"><path fill="none" stroke="#000000" d="M 443.607666015625 426.36 L 443.607666015625 443.64" stroke-miterlimit="10"/></g><g transform="translate(-54,-14) scale(1,1)"><path fill="none" stroke="#000000" d="M 434.41784783380683 432.84 L 452.79748419744317 432.84" stroke-miterlimit="10"/></g><g transform="translate(-54,-14) scale(1,1)"><path fill="none" stroke="#000000" d="M 443.607666015625 443.64 L 430.84402965198865 461" stroke-miterlimit="10"/></g><g transform="translate(-54,-14) scale(1,1)"><path fill="none" stroke="#000000" d="M 443.607666015625 443.64 L 456.37130237926135 461" stroke-miterlimit="10"/></g><g transform="translate(-54,-14) scale(1,1)"><g><path fill="none" stroke="none"/><text fill="#000000" stroke="none" font-family="Arial" font-size="13px" font-style="normal" font-weight="bold" text-decoration="none" x="412.5390625" y="481.5">Supervisor</text></g></g><g transform="translate(-54,-14) scale(1,1)"><g><path fill="none" stroke="none"/><text fill="#000000" stroke="none" font-family="Arial" font-size="13px" font-style="normal" font-weight="normal" text-decoration="none" x="405.33447265625" y="496.5">(from HRMS)</text></g></g><g transform="translate(-54,-14) scale(1,1)"><path fill="none" stroke="#000000" d="M 488 407 L 559 332" stroke-miterlimit="10"/></g><g transform="translate(-54,-14) scale(1,1)"><path fill="#FFFFFF" stroke="none" d="M 551.1407724378743 352.5482977914649 L 559 332 L 538.9128461857472 340.97252760611804"/></g><g transform="translate(-54,-14) scale(1,1)"><path fill="none" stroke="#000000" d="M 551.1407724378743 352.5482977914649 L 559 332 L 538.9128461857472 340.97252760611804 L 551.1407724378743 352.5482977914649" stroke-miterlimit="10"/></g><g transform="translate(-54,-14) scale(1,1)"><path fill="none" stroke="#000000" d="M 359 472 L 286 487" stroke-miterlimit="10"/></g><g transform="translate(-54,-14) scale(1,1)"><path fill="none" stroke="#000000" d="M 295.1074271570378 480.8311451160487 L 286 487 L 296.8019626225017 489.0778843813062" stroke-miterlimit="10"/></g><g transform="translate(-54,-14) scale(1,1)"><path fill="#ffff00" stroke="none" d="M 768.2870358664773 809.6800000000001 C 768.2870358664773 804.8861679360001 772.1728781914227 801 776.96630859375 801 C 781.7597389960773 801 785.6455813210227 804.8861679360001 785.6455813210227 809.6800000000001 C 785.6455813210227 814.473832064 781.7597389960773 818.36 776.96630859375 818.36 C 772.1728781914227 818.36 768.2870358664773 814.473832064 768.2870358664773 809.6800000000001 Z"/></g><g transform="translate(-54,-14) scale(1,1)"><path fill="none" stroke="#000000" d="M 768.2870358664773 809.6800000000001 C 768.2870358664773 804.8861679360001 772.1728781914227 801 776.96630859375 801 C 781.7597389960773 801 785.6455813210227 804.8861679360001 785.6455813210227 809.6800000000001 C 785.6455813210227 814.473832064 781.7597389960773 818.36 776.96630859375 818.36 C 772.1728781914227 818.36 768.2870358664773 814.473832064 768.2870358664773 809.6800000000001 Z" stroke-miterlimit="10"/></g><g transform="translate(-54,-14) scale(1,1)"><path fill="none" stroke="#000000" d="M 776.96630859375 818.36 L 776.96630859375 835.64" stroke-miterlimit="10"/></g><g transform="translate(-54,-14) scale(1,1)"><path fill="none" stroke="#000000" d="M 767.7764904119318 824.84 L 786.1561267755682 824.84" stroke-miterlimit="10"/></g><g transform="translate(-54,-14) scale(1,1)"><path fill="none" stroke="#000000" d="M 776.96630859375 835.64 L 764.2026722301136 853" stroke-miterlimit="10"/></g><g transform="translate(-54,-14) scale(1,1)"><path fill="none" stroke="#000000" d="M 776.96630859375 835.64 L 789.7299449573864 853" stroke-miterlimit="10"/></g><g transform="translate(-54,-14) scale(1,1)"><g><path fill="none" stroke="none"/><text fill="#000000" stroke="none" font-family="Arial" font-size="13px" font-style="normal" font-weight="bold" text-decoration="none" x="690.25732421875" y="873.5">Account Management System</text></g></g><g transform="translate(-54,-14) scale(1,1)"><g><path fill="none" stroke="none"/><text fill="#000000" stroke="none" font-family="Arial" font-size="13px" font-style="normal" font-weight="normal" text-decoration="none" x="738.693115234375" y="888.5">(from HRMS)</text></g></g><g transform="translate(-54,-14) scale(1,1)"><path fill="none" stroke="#000000" d="M 927 810 L 875 823" stroke-miterlimit="10"/></g><g transform="translate(-54,-14) scale(1,1)"><path fill="none" stroke="#000000" d="M 883.8382847744828 816.4513572211375 L 875 823 L 885.8802008145965 824.6190213815926" stroke-miterlimit="10"/></g><g transform="translate(-54,-14) scale(1,1)"><path fill="none" stroke="#000000" d="M 965 683 L 831 799" stroke-miterlimit="10"/></g><g transform="translate(-54,-14) scale(1,1)"><path fill="none" stroke="#000000" d="M 835.9284722587776 789.1658675423574 L 831 799 L 841.4387379029572 795.5311744071856" stroke-miterlimit="10"/></g><g transform="translate(-54,-14) scale(1,1)"><path fill="none" stroke="#000000" d="M 1012 647 L 1462 339" stroke-miterlimit="10" stroke-dasharray="3"/></g><g transform="translate(-54,-14) scale(1,1)"><path fill="none" stroke="#000000" d="M 1455.9911854063646 348.21380199371106 L 1462 339 L 1451.2359845836845 341.2662683242109" stroke-miterlimit="10"/></g><g transform="translate(-54,-14) scale(1,1)"><g><path fill="none" stroke="none"/><text fill="#000000" stroke="none" font-family="Arial" font-size="13px" font-style="normal" font-weight="normal" text-decoration="none" x="1192.5" y="474.5">«include»</text></g></g><g transform="translate(-54,-14) scale(1,1)"><path fill="none" stroke="#000000" d="M 1091 179 L 1438 303" stroke-miterlimit="10" stroke-dasharray="3"/></g><g transform="translate(-54,-14) scale(1,1)"><path fill="none" stroke="#000000" d="M 1427.0134695923023 303.5441962887903 L 1438 303 L 1429.8465449609046 295.6161547331049" stroke-miterlimit="10"/></g><g transform="translate(-54,-14) scale(1,1)"><g><path fill="none" stroke="none"/><text fill="#000000" stroke="none" font-family="Arial" font-size="13px" font-style="normal" font-weight="normal" text-decoration="none" x="1246.5" y="218.5">«include»</text></g></g><g transform="translate(-54,-14) scale(1,1)"><path fill="#C0C0C0" stroke="none" d="M 223 240 C 223 230.6111584 282.322264 223 355.5 223 C 428.677736 223 488 230.6111584 488 240 C 488 249.3888416 428.677736 257 355.5 257 C 282.322264 257 223 249.3888416 223 240 Z" opacity="0.2"/></g><g transform="translate(-54,-14) scale(1,1)"><path fill="#ffff00" stroke="none" d="M 216 233 C 216 223.6111584 275.322264 216 348.5 216 C 421.677736 216 481 223.6111584 481 233 C 481 242.3888416 421.677736 250 348.5 250 C 275.322264 250 216 242.3888416 216 233 Z"/></g><g transform="translate(-54,-14) scale(1,1)"><path fill="none" stroke="#000000" d="M 216 233 C 216 223.6111584 275.322264 216 348.5 216 C 421.677736 216 481 223.6111584 481 233 C 481 242.3888416 421.677736 250 348.5 250 C 275.322264 250 216 242.3888416 216 233 Z" stroke-miterlimit="10"/></g><g transform="translate(-54,-14) scale(1,1)"><g><path fill="none" stroke="none"/><text fill="#000000" stroke="none" font-family="Arial" font-size="13px" font-style="normal" font-weight="bold" text-decoration="none" x="265.761474609375" y="240">view performance evaluation</text></g></g><g transform="translate(-54,-14) scale(1,1)"><path fill="#C0C0C0" stroke="none" d="M 287 632 C 287 622.6111584 359.75372 615 449.5 615 C 539.24628 615 612 622.6111584 612 632 C 612 641.3888416 539.24628 649 449.5 649 C 359.75372 649 287 641.3888416 287 632 Z" opacity="0.2"/></g><g transform="translate(-54,-14) scale(1,1)"><path fill="#ffff49" stroke="none" d="M 280 625 C 280 615.6111584 352.75372 608 442.5 608 C 532.24628 608 605 615.6111584 605 625 C 605 634.3888416 532.24628 642 442.5 642 C 352.75372 642 280 634.3888416 280 625 Z"/></g><g transform="translate(-54,-14) scale(1,1)"><path fill="none" stroke="#000000" d="M 280 625 C 280 615.6111584 352.75372 608 442.5 608 C 532.24628 608 605 615.6111584 605 625 C 605 634.3888416 532.24628 642 442.5 642 C 352.75372 642 280 634.3888416 280 625 Z" stroke-miterlimit="10"/></g><g transform="translate(-54,-14) scale(1,1)"><g><path fill="none" stroke="none"/><text fill="#000000" stroke="none" font-family="Arial" font-size="13px" font-style="normal" font-weight="bold" text-decoration="none" x="339.893310546875" y="632">create performance evaluation form</text></g></g><g transform="translate(-54,-14) scale(1,1)"><path fill="none" stroke="#000000" d="M 552 511 L 459 607" stroke-miterlimit="10"/></g><g transform="translate(-54,-14) scale(1,1)"><path fill="none" stroke="#000000" d="M 463.0476955750244 596.7717958305514 L 459 607 L 469.0945855168562 602.6297204617009" stroke-miterlimit="10"/></g><g transform="translate(-54,-14) scale(1,1)"><path fill="none" stroke="#000000" d="M 559 278 L 433 251" stroke-miterlimit="10"/></g><g transform="translate(-54,-14) scale(1,1)"><path fill="none" stroke="#000000" d="M 443.81910442868315 249.01329937805198 L 433 251 L 442.0550715898542 257.2454526259203" stroke-miterlimit="10"/></g><g transform="translate(-54,-14) scale(1,1)"><path fill="none" stroke="#000000" d="M 645 421 L 1008 99" stroke-miterlimit="10"/></g><g transform="translate(-54,-14) scale(1,1)"><path fill="none" stroke="#000000" d="M 1003.1908121183076 108.89301328810299 L 1008 99 L 997.6039738544689 102.59480741924136" stroke-miterlimit="10"/></g><g transform="translate(-54,-14) scale(1,1)"><path fill="none" stroke="#000000" d="M 645 431 L 1015 179" stroke-miterlimit="10"/></g><g transform="translate(-54,-14) scale(1,1)"><path fill="none" stroke="#000000" d="M 1008.9700648899371 188.1999936178473 L 1015 179 L 1004.2308141195069 181.24156986761247" stroke-miterlimit="10"/></g><g transform="translate(-54,-14) scale(1,1)"><path fill="none" stroke="#000000" d="M 645 441 L 1031 259" stroke-miterlimit="10"/></g><g transform="translate(-54,-14) scale(1,1)"><path fill="none" stroke="#000000" d="M 1023.6031123469642 267.14162471797647 L 1031 259 L 1020.0126125329061 259.52660862882044" stroke-miterlimit="10"/></g><g transform="translate(-54,-14) scale(1,1)"><path fill="none" stroke="#000000" d="M 645 447 L 1014 323" stroke-miterlimit="10"/></g><g transform="translate(-54,-14) scale(1,1)"><path fill="none" stroke="#000000" d="M 1005.7075954234309 330.22744950438926 L 1014 323 L 1003.0258059363287 322.24696304680265" stroke-miterlimit="10"/></g><g transform="translate(-54,-14) scale(1,1)"><path fill="none" stroke="#000000" d="M 645 453 L 982 379" stroke-miterlimit="10"/></g><g transform="translate(-54,-14) scale(1,1)"><path fill="none" stroke="#000000" d="M 972.9766504994262 385.2911973256683 L 982 379 L 971.1709800883654 377.0680766698908" stroke-miterlimit="10"/></g><g transform="translate(-54,-14) scale(1,1)"><path fill="none" stroke="#000000" d="M 645 459 L 975 432" stroke-miterlimit="10"/></g><g transform="translate(-54,-14) scale(1,1)"><path fill="none" stroke="#000000" d="M 965.2144389240252 437.02422077822683 L 975 432 L 964.5279028230005 428.6332239879256" stroke-miterlimit="10"/></g><g transform="translate(-54,-14) scale(1,1)"><path fill="none" stroke="#000000" d="M 645 467 L 935 490" stroke-miterlimit="10"/></g><g transform="translate(-54,-14) scale(1,1)"><path fill="none" stroke="#000000" d="M 924.5363241940347 493.39285847445154 L 935 490 L 925.2019506465734 485.0001771163553" stroke-miterlimit="10"/></g><g transform="translate(-54,-14) scale(1,1)"><path fill="#C0C0C0" stroke="none" d="M 935 577 C 935 562.6405952 967.2354944 551 1007 551 C 1046.7645056 551 1079 562.6405952 1079 577 C 1079 591.3594048 1046.7645056 603 1007 603 C 967.2354944 603 935 591.3594048 935 577 Z" opacity="0.2"/></g><g transform="translate(-54,-14) scale(1,1)"><path fill="#ffff00" stroke="none" d="M 928 570 C 928 555.6405952 960.2354944 544 1000 544 C 1039.7645056 544 1072 555.6405952 1072 570 C 1072 584.3594048 1039.7645056 596 1000 596 C 960.2354944 596 928 584.3594048 928 570 Z"/></g><g transform="translate(-54,-14) scale(1,1)"><path fill="none" stroke="#000000" d="M 928 570 C 928 555.6405952 960.2354944 544 1000 544 C 1039.7645056 544 1072 555.6405952 1072 570 C 1072 584.3594048 1039.7645056 596 1000 596 C 960.2354944 596 928 584.3594048 928 570 Z" stroke-miterlimit="10"/></g><g transform="translate(-54,-14) scale(1,1)"><g><path fill="none" stroke="none"/><text fill="#000000" stroke="none" font-family="Arial" font-size="13px" font-style="normal" font-weight="bold" text-decoration="none" x="971.095947265625" y="570.5">determine</text><text fill="#000000" stroke="none" font-family="Arial" font-size="13px" font-style="normal" font-weight="bold" text-decoration="none" x="982.661376953125" y="583.5">salary</text></g></g><g transform="translate(-54,-14) scale(1,1)"><path fill="none" stroke="#000000" d="M 645 476 L 927 551" stroke-miterlimit="10"/></g><g transform="translate(-54,-14) scale(1,1)"><path fill="none" stroke="#000000" d="M 916.0967948587212 552.4560623775071 L 927 551 L 918.2606781269678 544.3198612888996" stroke-miterlimit="10"/></g><g transform="translate(-54,-14) scale(1,1)"><path fill="none" stroke="#000000" d="M 1053 543 L 1453 339" stroke-miterlimit="10" stroke-dasharray="3"/></g><g transform="translate(-54,-14) scale(1,1)"><path fill="none" stroke="#000000" d="M 1445.8592226168767 347.36715593046256 L 1453 339 L 1442.0342351917748 339.8671805871253" stroke-miterlimit="10"/></g><g transform="translate(-54,-14) scale(1,1)"><g><path fill="none" stroke="none"/><text fill="#000000" stroke="none" font-family="Arial" font-size="13px" font-style="normal" font-weight="normal" text-decoration="none" x="1211.5" y="420.5">«include»</text></g></g></g></svg>