<svg version="1.1" xmlns="http://www.w3.org/2000/svg" xmlns:xlink="http://www.w3.org/1999/xlink" width="1557" height="810"><defs/><g><g transform="translate(-54,-14) scale(1,1)"><path fill="#C0C0C0" stroke="none" d="M 967 88 C 967 78.6111584 997.6684912 71 1035.5 71 C 1073.3315088 71 1104 78.6111584 1104 88 C 1104 97.3888416 1073.3315088 105 1035.5 105 C 997.6684912 105 967 97.3888416 967 88 Z" opacity="0.2"/></g><g transform="translate(-54,-14) scale(1,1)"><path fill="#ffff00" stroke="none" d="M 960 81 C 960 71.6111584 990.6684912 64 1028.5 64 C 1066.3315088 64 1097 71.6111584 1097 81 C 1097 90.3888416 1066.3315088 98 1028.5 98 C 990.6684912 98 960 90.3888416 960 81 Z"/></g><g transform="translate(-54,-14) scale(1,1)"><path fill="none" stroke="#000000" d="M 960 81 C 960 71.6111584 990.6684912 64 1028.5 64 C 1066.3315088 64 1097 71.6111584 1097 81 C 1097 90.3888416 1066.3315088 98 1028.5 98 C 990.6684912 98 960 90.3888416 960 81 Z" stroke-miterlimit="10"/></g><g transform="translate(-54,-14) scale(1,1)"><g><path fill="none" stroke="none"/><text fill="#000000" stroke="none" font-family="Arial" font-size="13px" font-style="normal" font-weight="bold" text-decoration="none" x="987.671875" y="88">hire employee</text></g></g><g transform="translate(-54,-14) scale(1,1)"><path fill="#C0C0C0" stroke="none" d="M 967 168 C 967 158.6111584 1008.413656 151 1059.5 151 C 1110.586344 151 1152 158.6111584 1152 168 C 1152 177.3888416 1110.586344 185 1059.5 185 C 1008.413656 185 967 177.3888416 967 168 Z" opacity="0.2"/></g><g transform="translate(-54,-14) scale(1,1)"><path fill="#ffff00" stroke="none" d="M 960 161 C 960 151.6111584 1001.413656 144 1052.5 144 C 1103.586344 144 1145 151.6111584 1145 161 C 1145 170.3888416 1103.586344 178 1052.5 178 C 1001.413656 178 960 170.3888416 960 161 Z"/></g><g transform="translate(-54,-14) scale(1,1)"><path fill="none" stroke="#000000" d="M 960 161 C 960 151.6111584 1001.413656 144 1052.5 144 C 1103.586344 144 1145 151.6111584 1145 161 C 1145 170.3888416 1103.586344 178 1052.5 178 C 1001.413656 178 960 170.3888416 960 161 Z" stroke-miterlimit="10"/></g><g transform="translate(-54,-14) scale(1,1)"><g><path fill="none" stroke="none"/><text fill="#000000" stroke="none" font-family="Arial" font-size="13px" font-style="normal" font-weight="bold" text-decoration="none" x="995.41552734375" y="168">terminate employee</text></g></g><g transform="translate(-54,-14) scale(1,1)"><path fill="#C0C0C0" stroke="none" d="M 975 312 C 975 302.6111584 1019.77152 295 1075 295 C 1130.22848 295 1175 302.6111584 1175 312 C 1175 321.3888416 1130.22848 329 1075 329 C 1019.77152 329 975 321.3888416 975 312 Z" opacity="0.2"/></g><g transform="translate(-54,-14) scale(1,1)"><path fill="#ffff00" stroke="none" d="M 968 305 C 968 295.6111584 1012.77152 288 1068 288 C 1123.22848 288 1168 295.6111584 1168 305 C 1168 314.3888416 1123.22848 322 1068 322 C 1012.77152 322 968 314.3888416 968 305 Z"/></g><g transform="translate(-54,-14) scale(1,1)"><path fill="none" stroke="#000000" d="M 968 305 C 968 295.6111584 1012.77152 288 1068 288 C 1123.22848 288 1168 295.6111584 1168 305 C 1168 314.3888416 1123.22848 322 1068 322 C 1012.77152 322 968 314.3888416 968 305 Z" stroke-miterlimit="10"/></g><g transform="translate(-54,-14) scale(1,1)"><g><path fill="none" stroke="none"/><text fill="#000000" stroke="none" font-family="Arial" font-size="13px" font-style="normal" font-weight="bold" text-decoration="none" x="1005.85009765625" y="312">grant employee leave</text></g></g><g transform="translate(-54,-14) scale(1,1)"><path fill="#C0C0C0" stroke="none" d="M 983 368 C 983 358.6111584 1022.6227952 351 1071.5 351 C 1120.3772048 351 1160 358.6111584 1160 368 C 1160 377.3888416 1120.3772048 385 1071.5 385 C 1022.6227952 385 983 377.3888416 983 368 Z" opacity="0.2"/></g><g transform="translate(-54,-14) scale(1,1)"><path fill="#ffff00" stroke="none" d="M 976 361 C 976 351.6111584 1015.6227952 344 1064.5 344 C 1113.3772048 344 1153 351.6111584 1153 361 C 1153 370.3888416 1113.3772048 378 1064.5 378 C 1015.6227952 378 976 370.3888416 976 361 Z"/></g><g transform="translate(-54,-14) scale(1,1)"><path fill="none" stroke="#000000" d="M 976 361 C 976 351.6111584 1015.6227952 344 1064.5 344 C 1113.3772048 344 1153 351.6111584 1153 361 C 1153 370.3888416 1113.3772048 378 1064.5 378 C 1015.6227952 378 976 370.3888416 976 361 Z" stroke-miterlimit="10"/></g><g transform="translate(-54,-14) scale(1,1)"><g><path fill="none" stroke="none"/><text fill="#000000" stroke="none" font-family="Arial" font-size="13px" font-style="normal" font-weight="bold" text-decoration="none" x="1010.66552734375" y="368">promote employee</text></g></g><g transform="translate(-54,-14) scale(1,1)"><path fill="#C0C0C0" stroke="none" d="M 983 432 C 983 422.6111584 1020.6080768 415 1067 415 C 1113.3919232 415 1151 422.6111584 1151 432 C 1151 441.3888416 1113.3919232 449 1067 449 C 1020.6080768 449 983 441.3888416 983 432 Z" opacity="0.2"/></g><g transform="translate(-54,-14) scale(1,1)"><path fill="#ffff00" stroke="none" d="M 976 425 C 976 415.6111584 1013.6080768 408 1060 408 C 1106.3919232 408 1144 415.6111584 1144 425 C 1144 434.3888416 1106.3919232 442 1060 442 C 1013.6080768 442 976 434.3888416 976 425 Z"/></g><g transform="translate(-54,-14) scale(1,1)"><path fill="none" stroke="#000000" d="M 976 425 C 976 415.6111584 1013.6080768 408 1060 408 C 1106.3919232 408 1144 415.6111584 1144 425 C 1144 434.3888416 1106.3919232 442 1060 442 C 1013.6080768 442 976 434.3888416 976 425 Z" stroke-miterlimit="10"/></g><g transform="translate(-54,-14) scale(1,1)"><g><path fill="none" stroke="none"/><text fill="#000000" stroke="none" font-family="Arial" font-size="13px" font-style="normal" font-weight="bold" text-decoration="none" x="1008.330078125" y="432">demote employee</text></g></g><g transform="translate(-54,-14) scale(1,1)"><path fill="#C0C0C0" stroke="none" d="M 975 488 C 975 478.6111584 1013.2796496 471 1060.5 471 C 1107.7203504 471 1146 478.6111584 1146 488 C 1146 497.3888416 1107.7203504 505 1060.5 505 C 1013.2796496 505 975 497.3888416 975 488 Z" opacity="0.2"/></g><g transform="translate(-54,-14) scale(1,1)"><path fill="#ffff00" stroke="none" d="M 968 481 C 968 471.6111584 1006.2796496 464 1053.5 464 C 1100.7203504 464 1139 471.6111584 1139 481 C 1139 490.3888416 1100.7203504 498 1053.5 498 C 1006.2796496 498 968 490.3888416 968 481 Z"/></g><g transform="translate(-54,-14) scale(1,1)"><path fill="none" stroke="#000000" d="M 968 481 C 968 471.6111584 1006.2796496 464 1053.5 464 C 1100.7203504 464 1139 471.6111584 1139 481 C 1139 490.3888416 1100.7203504 498 1053.5 498 C 1006.2796496 498 968 490.3888416 968 481 Z" stroke-miterlimit="10"/></g><g transform="translate(-54,-14) scale(1,1)"><g><path fill="none" stroke="none"/><text fill="#000000" stroke="none" font-family="Arial" font-size="13px" font-style="normal" font-weight="bold" text-decoration="none" x="1001.474609375" y="488">transfer employee</text></g></g><g transform="translate(-54,-14) scale(1,1)"><path fill="#C0C0C0" stroke="none" d="M 943 248 C 943 238.6111584 1002.5461216 231 1076 231 C 1149.4538784000001 231 1209 238.6111584 1209 248 C 1209 257.3888416 1149.4538784000001 265 1076 265 C 1002.5461216 265 943 257.3888416 943 248 Z" opacity="0.2"/></g><g transform="translate(-54,-14) scale(1,1)"><path fill="#ffff00" stroke="none" d="M 936 241 C 936 231.6111584 995.5461216 224 1069 224 C 1142.4538784000001 224 1202 231.6111584 1202 241 C 1202 250.3888416 1142.4538784000001 258 1069 258 C 995.5461216 258 936 250.3888416 936 241 Z"/></g><g transform="translate(-54,-14) scale(1,1)"><path fill="none" stroke="#000000" d="M 936 241 C 936 231.6111584 995.5461216 224 1069 224 C 1142.4538784000001 224 1202 231.6111584 1202 241 C 1202 250.3888416 1142.4538784000001 258 1069 258 C 995.5461216 258 936 250.3888416 936 241 Z" stroke-miterlimit="10"/></g><g transform="translate(-54,-14) scale(1,1)"><g><path fill="none" stroke="none"/><text fill="#000000" stroke="none" font-family="Arial" font-size="13px" font-style="normal" font-weight="bold" text-decoration="none" x="995.6337890625" y="248">add employee dependent</text></g></g><g transform="translate(-54,-14) scale(1,1)"><path fill="#C0C0C0" stroke="none" d="M 1255 48 C 1255 38.6111584 1304.0248144 31 1364.5 31 C 1424.9751856 31 1474 38.6111584 1474 48 C 1474 57.3888416 1424.9751856 65 1364.5 65 C 1304.0248144 65 1255 57.3888416 1255 48 Z" opacity="0.2"/></g><g transform="translate(-54,-14) scale(1,1)"><path fill="#ffff00" stroke="none" d="M 1248 41 C 1248 31.6111584 1297.0248144 24 1357.5 24 C 1417.9751856 24 1467 31.6111584 1467 41 C 1467 50.3888416 1417.9751856 58 1357.5 58 C 1297.0248144 58 1248 50.3888416 1248 41 Z"/></g><g transform="translate(-54,-14) scale(1,1)"><path fill="none" stroke="#000000" d="M 1248 41 C 1248 31.6111584 1297.0248144 24 1357.5 24 C 1417.9751856 24 1467 31.6111584 1467 41 C 1467 50.3888416 1417.9751856 58 1357.5 58 C 1297.0248144 58 1248 50.3888416 1248 41 Z" stroke-miterlimit="10"/></g><g transform="translate(-54,-14) scale(1,1)"><g><path fill="none" stroke="none"/><text fill="#000000" stroke="none" font-family="Arial" font-size="13px" font-style="normal" font-weight="bold" text-decoration="none" x="1289.215087890625" y="48">create employee record</text></g></g><g transform="translate(-54,-14) scale(1,1)"><path fill="none" stroke="#000000" d="M 1098 72 L 1247 54" stroke-miterlimit="10" stroke-dasharray="3"/></g><g transform="translate(-54,-14) scale(1,1)"><path fill="none" stroke="#000000" d="M 1237.4155416596313 59.39797724353642 L 1247 54 L 1236.40581819993 51.0397108271206" stroke-miterlimit="10"/></g><g transform="translate(-54,-14) scale(1,1)"><g><path fill="none" stroke="none"/><text fill="#000000" stroke="none" font-family="Arial" font-size="13px" font-style="normal" font-weight="normal" text-decoration="none" x="1140.5" y="39.5">«include»</text></g></g><g transform="translate(-54,-14) scale(1,1)"><path fill="#C0C0C0" stroke="none" d="M 1383 328 C 1383 318.6111584 1433.36796 311 1495.5 311 C 1557.63204 311 1608 318.6111584 1608 328 C 1608 337.3888416 1557.63204 345 1495.5 345 C 1433.36796 345 1383 337.3888416 1383 328 Z" opacity="0.2"/></g><g transform="translate(-54,-14) scale(1,1)"><path fill="#ffff00" stroke="none" d="M 1376 321 C 1376 311.6111584 1426.36796 304 1488.5 304 C 1550.63204 304 1601 311.6111584 1601 321 C 1601 330.3888416 1550.63204 338 1488.5 338 C 1426.36796 338 1376 330.3888416 1376 321 Z"/></g><g transform="translate(-54,-14) scale(1,1)"><path fill="none" stroke="#000000" d="M 1376 321 C 1376 311.6111584 1426.36796 304 1488.5 304 C 1550.63204 304 1601 311.6111584 1601 321 C 1601 330.3888416 1550.63204 338 1488.5 338 C 1426.36796 338 1376 330.3888416 1376 321 Z" stroke-miterlimit="10"/></g><g transform="translate(-54,-14) scale(1,1)"><g><path fill="none" stroke="none"/><text fill="#000000" stroke="none" font-family="Arial" font-size="13px" font-style="normal" font-weight="bold" text-decoration="none" x="1418.399658203125" y="328">update employee record</text></g></g><g transform="translate(-54,-14) scale(1,1)"><path fill="none" stroke="#000000" d="M 1169 309 L 1375 317" stroke-miterlimit="10" stroke-dasharray="3"/></g><g transform="translate(-54,-14) scale(1,1)"><path fill="none" stroke="#000000" d="M 1364.681626638415 320.81197733085276 L 1375 317 L 1365.0083332048332 312.39928324558406" stroke-miterlimit="10"/></g><g transform="translate(-54,-14) scale(1,1)"><g><path fill="none" stroke="none"/><text fill="#000000" stroke="none" font-family="Arial" font-size="13px" font-style="normal" font-weight="normal" text-decoration="none" x="1245.5" y="289.5">«include»</text></g></g><g transform="translate(-54,-14) scale(1,1)"><path fill="none" stroke="#000000" d="M 1154 353 L 1375 332" stroke-miterlimit="10" stroke-dasharray="3"/></g><g transform="translate(-54,-14) scale(1,1)"><path fill="none" stroke="#000000" d="M 1365.281103378755 337.15199461039646 L 1375 332 L 1364.484691967819 328.7707126191146" stroke-miterlimit="10"/></g><g transform="translate(-54,-14) scale(1,1)"><g><path fill="none" stroke="none"/><text fill="#000000" stroke="none" font-family="Arial" font-size="13px" font-style="normal" font-weight="normal" text-decoration="none" x="1233.5" y="318.5">«include»</text></g></g><g transform="translate(-54,-14) scale(1,1)"><path fill="none" stroke="#000000" d="M 1134 407 L 1414 339" stroke-miterlimit="10" stroke-dasharray="3"/></g><g transform="translate(-54,-14) scale(1,1)"><path fill="none" stroke="#000000" d="M 1405.1178180081354 345.48897858398334 L 1414 339 L 1403.1309481221106 337.30774964152835" stroke-miterlimit="10"/></g><g transform="translate(-54,-14) scale(1,1)"><g><path fill="none" stroke="none"/><text fill="#000000" stroke="none" font-family="Arial" font-size="13px" font-style="normal" font-weight="normal" text-decoration="none" x="1238.5" y="349.5">«include»</text></g></g><g transform="translate(-54,-14) scale(1,1)"><path fill="none" stroke="#000000" d="M 1102 463 L 1439 339" stroke-miterlimit="10" stroke-dasharray="3"/></g><g transform="translate(-54,-14) scale(1,1)"><path fill="none" stroke="#000000" d="M 1430.9160982059238 346.45992840339187 L 1439 339 L 1428.0088522617582 338.5587841841672" stroke-miterlimit="10"/></g><g transform="translate(-54,-14) scale(1,1)"><g><path fill="none" stroke="none"/><text fill="#000000" stroke="none" font-family="Arial" font-size="13px" font-style="normal" font-weight="normal" text-decoration="none" x="1231.5" y="378.5">«include»</text></g></g><g transform="translate(-54,-14) scale(1,1)"><path fill="#C0C0C0" stroke="none" d="M 71 512 C 71 502.6111584 135.02327359999998 495 214 495 C 292.9767264 495 357 502.6111584 357 512 C 357 521.3888416 292.9767264 529 214 529 C 135.02327359999998 529 71 521.3888416 71 512 Z" opacity="0.2"/></g><g transform="translate(-54,-14) scale(1,1)"><path fill="#ffff00" stroke="none" d="M 64 505 C 64 495.6111584 128.02327359999998 488 207 488 C 285.9767264 488 350 495.6111584 350 505 C 350 514.3888416 285.9767264 522 207 522 C 128.02327359999998 522 64 514.3888416 64 505 Z"/></g><g transform="translate(-54,-14) scale(1,1)"><path fill="none" stroke="#000000" d="M 64 505 C 64 495.6111584 128.02327359999998 488 207 488 C 285.9767264 488 350 495.6111584 350 505 C 350 514.3888416 285.9767264 522 207 522 C 128.02327359999998 522 64 514.3888416 64 505 Z" stroke-miterlimit="10"/></g><g transform="translate(-54,-14) scale(1,1)"><g><path fill="none" stroke="none"/><text fill="#000000" stroke="none" font-family="Arial" font-size="13px" font-style="normal" font-weight="bold" text-decoration="none" x="118.1201171875" y="512">submit performance evaluation</text></g></g><g transform="translate(-54,-14) scale(1,1)"><path fill="#C0C0C0" stroke="none" d="M 943 800 C 943 790.6111584 990.4578112 783 1049 783 C 1107.5421888 783 1155 790.6111584 1155 800 C 1155 809.3888416 1107.5421888 817 1049 817 C 990.4578112 817 943 809.3888416 943 800 Z" opacity="0.2"/></g><g transform="translate(-54,-14) scale(1,1)"><path fill="#ffff00" stroke="none" d="M 936 793 C 936 783.6111584 983.4578112 776 1042 776 C 1100.5421888 776 1148 783.6111584 1148 793 C 1148 802.3888416 1100.5421888 810 1042 810 C 983.4578112 810 936 802.3888416 936 793 Z"/></g><g transform="translate(-54,-14) scale(1,1)"><path fill="none" stroke="#000000" d="M 936 793 C 936 783.6111584 983.4578112 776 1042 776 C 1100.5421888 776 1148 783.6111584 1148 793 C 1148 802.3888416 1100.5421888 810 1042 810 C 983.4578112 810 936 802.3888416 936 793 Z" stroke-miterlimit="10"/></g><g transform="translate(-54,-14) scale(1,1)"><g><path fill="none" stroke="none"/><text fill="#000000" stroke="none" font-family="Arial" font-size="13px" font-style="normal" font-weight="bold" text-decoration="none" x="977.685546875" y="800">assign payroll account</text></g></g><g transform="translate(-54,-14) scale(1,1)"><path fill="#C0C0C0" stroke="none" d="M 975 568 C 975 558.6111584 1004.9969184 551 1042 551 C 1079.0030816 551 1109 558.6111584 1109 568 C 1109 577.3888416 1079.0030816 585 1042 585 C 1004.9969184 585 975 577.3888416 975 568 Z" opacity="0.2"/></g><g transform="translate(-54,-14) scale(1,1)"><path fill="#ffff00" stroke="none" d="M 968 561 C 968 551.6111584 997.9969184 544 1035 544 C 1072.0030816 544 1102 551.6111584 1102 561 C 1102 570.3888416 1072.0030816 578 1035 578 C 997.9969184 578 968 570.3888416 968 561 Z"/></g><g transform="translate(-54,-14) scale(1,1)"><path fill="none" stroke="#000000" d="M 968 561 C 968 551.6111584 997.9969184 544 1035 544 C 1072.0030816 544 1102 551.6111584 1102 561 C 1102 570.3888416 1072.0030816 578 1035 578 C 997.9969184 578 968 570.3888416 968 561 Z" stroke-miterlimit="10"/></g><g transform="translate(-54,-14) scale(1,1)"><g><path fill="none" stroke="none"/><text fill="#000000" stroke="none" font-family="Arial" font-size="13px" font-style="normal" font-weight="bold" text-decoration="none" x="994.530517578125" y="568">pay employee</text></g></g><g transform="translate(-54,-14) scale(1,1)"><path fill="none" stroke="#000000" d="M 1163 259 L 1394 303" stroke-miterlimit="10" stroke-dasharray="3"/></g><g transform="translate(-54,-14) scale(1,1)"><path fill="none" stroke="#000000" d="M 1383.2291608088153 305.23361212336397 L 1394 303 L 1384.8044642898724 296.96326884781456" stroke-miterlimit="10"/></g><g transform="translate(-54,-14) scale(1,1)"><g><path fill="none" stroke="none"/><text fill="#000000" stroke="none" font-family="Arial" font-size="13px" font-style="normal" font-weight="normal" text-decoration="none" x="1255.5" y="257.5">«include»</text></g></g><g transform="translate(-54,-14) scale(1,1)"><path fill="none" stroke="#000000" d="M 1069 543 L 1454 339" stroke-miterlimit="10" stroke-dasharray="3"/></g><g transform="translate(-54,-14) scale(1,1)"><path fill="none" stroke="#000000" d="M 1446.9909666381366 347.47782114297576 L 1454 339 L 1443.0491401603788 340.0385898001485" stroke-miterlimit="10"/></g><g transform="translate(-54,-14) scale(1,1)"><g><path fill="none" stroke="none"/><text fill="#000000" stroke="none" font-family="Arial" font-size="13px" font-style="normal" font-weight="normal" text-decoration="none" x="1218.5" y="420.5">«include»</text></g></g><g transform="translate(-54,-14) scale(1,1)"><path fill="#ffff00" stroke="none" d="M 589.3629636008523 425.68 C 589.3629636008523 420.886167936 593.2488059257977 417 598.042236328125 417 C 602.8356667304523 417 606.7215090553977 420.886167936 606.7215090553977 425.68 C 606.7215090553977 430.473832064 602.8356667304523 434.36 598.042236328125 434.36 C 593.2488059257977 434.36 589.3629636008523 430.473832064 589.3629636008523 425.68 Z"/></g><g transform="translate(-54,-14) scale(1,1)"><path fill="none" stroke="#000000" d="M 589.3629636008523 425.68 C 589.3629636008523 420.886167936 593.2488059257977 417 598.042236328125 417 C 602.8356667304523 417 606.7215090553977 420.886167936 606.7215090553977 425.68 C 606.7215090553977 430.473832064 602.8356667304523 434.36 598.042236328125 434.36 C 593.2488059257977 434.36 589.3629636008523 430.473832064 589.3629636008523 425.68 Z" stroke-miterlimit="10"/></g><g transform="translate(-54,-14) scale(1,1)"><path fill="none" stroke="#000000" d="M 598.042236328125 434.36 L 598.042236328125 451.64" stroke-miterlimit="10"/></g><g transform="translate(-54,-14) scale(1,1)"><path fill="none" stroke="#000000" d="M 588.8524181463068 440.84 L 607.2320545099432 440.84" stroke-miterlimit="10"/></g><g transform="translate(-54,-14) scale(1,1)"><path fill="none" stroke="#000000" d="M 598.042236328125 451.64 L 585.2785999644886 469" stroke-miterlimit="10"/></g><g transform="translate(-54,-14) scale(1,1)"><path fill="none" stroke="#000000" d="M 598.042236328125 451.64 L 610.8058726917614 469" stroke-miterlimit="10"/></g><g transform="translate(-54,-14) scale(1,1)"><g><path fill="none" stroke="none"/><text fill="#000000" stroke="none" font-family="Arial" font-size="13px" font-style="normal" font-weight="bold" text-decoration="none" x="559.029541015625" y="489.5">HR Specialist</text></g></g><g transform="translate(-54,-14) scale(1,1)"><g><path fill="none" stroke="none"/><text fill="#000000" stroke="none" font-family="Arial" font-size="13px" font-style="normal" font-weight="normal" text-decoration="none" x="559.76904296875" y="504.5">(from HRMS)</text></g></g><g transform="translate(-54,-14) scale(1,1)"><path fill="#ffff00" stroke="none" d="M 594.0939206321023 249.68 C 594.0939206321023 244.886167936 597.9797629570477 241 602.773193359375 241 C 607.5666237617023 241 611.4524660866477 244.886167936 611.4524660866477 249.68 C 611.4524660866477 254.47383206400002 607.5666237617023 258.36 602.773193359375 258.36 C 597.9797629570477 258.36 594.0939206321023 254.47383206400002 594.0939206321023 249.68 Z"/></g><g transform="translate(-54,-14) scale(1,1)"><path fill="none" stroke="#000000" d="M 594.0939206321023 249.68 C 594.0939206321023 244.886167936 597.9797629570477 241 602.773193359375 241 C 607.5666237617023 241 611.4524660866477 244.886167936 611.4524660866477 249.68 C 611.4524660866477 254.47383206400002 607.5666237617023 258.36 602.773193359375 258.36 C 597.9797629570477 258.36 594.0939206321023 254.47383206400002 594.0939206321023 249.68 Z" stroke-miterlimit="10"/></g><g transform="translate(-54,-14) scale(1,1)"><path fill="none" stroke="#000000" d="M 602.773193359375 258.36 L 602.773193359375 275.64" stroke-miterlimit="10"/></g><g transform="translate(-54,-14) scale(1,1)"><path fill="none" stroke="#000000" d="M 593.5833751775568 264.84 L 611.9630115411932 264.84" stroke-miterlimit="10"/></g><g transform="translate(-54,-14) scale(1,1)"><path fill="none" stroke="#000000" d="M 602.773193359375 275.64 L 590.0095569957386 293" stroke-miterlimit="10"/></g><g transform="translate(-54,-14) scale(1,1)"><path fill="none" stroke="#000000" d="M 602.773193359375 275.64 L 615.5368297230114 293" stroke-miterlimit="10"/></g><g transform="translate(-54,-14) scale(1,1)"><g><path fill="none" stroke="none"/><text fill="#000000" stroke="none" font-family="Arial" font-size="13px" font-style="normal" font-weight="bold" text-decoration="none" x="573.869140625" y="313.5">Employee</text></g></g><g transform="translate(-54,-14) scale(1,1)"><g><path fill="none" stroke="none"/><text fill="#000000" stroke="none" font-family="Arial" font-size="13px" font-style="normal" font-weight="normal" text-decoration="none" x="564.5" y="328.5">(from HRMS)</text></g></g><g transform="translate(-54,-14) scale(1,1)"><path fill="none" stroke="#000000" d="M 599 415 L 601 335" stroke-miterlimit="10"/></g><g transform="translate(-54,-14) scale(1,1)"><path fill="#FFFFFF" stroke="none" d="M 608.9084307705682 355.52941116415985 L 601 335 L 592.0756191784689 355.10859087435733"/></g><g transform="translate(-54,-14) scale(1,1)"><path fill="none" stroke="#000000" d="M 608.9084307705682 355.52941116415985 L 601 335 L 592.0756191784689 355.10859087435733 L 608.9084307705682 355.52941116415985" stroke-miterlimit="10"/></g><g transform="translate(-54,-14) scale(1,1)"><path fill="none" stroke="#000000" d="M 645 498 L 1018 775" stroke-miterlimit="10"/></g><g transform="translate(-54,-14) scale(1,1)"><path fill="none" stroke="#000000" d="M 1007.3313418641628 772.3204975124785 L 1018 775 L 1012.3508138651212 765.5614251068557" stroke-miterlimit="10"/></g><g transform="translate(-54,-14) scale(1,1)"><path fill="#ffff00" stroke="none" d="M 434.92839328835225 417.68 C 434.92839328835225 412.886167936 438.81423561329774 409 443.607666015625 409 C 448.40109641795226 409 452.28693874289775 412.886167936 452.28693874289775 417.68 C 452.28693874289775 422.473832064 448.40109641795226 426.36 443.607666015625 426.36 C 438.81423561329774 426.36 434.92839328835225 422.473832064 434.92839328835225 417.68 Z"/></g><g transform="translate(-54,-14) scale(1,1)"><path fill="none" stroke="#000000" d="M 434.92839328835225 417.68 C 434.92839328835225 412.886167936 438.81423561329774 409 443.607666015625 409 C 448.40109641795226 409 452.28693874289775 412.886167936 452.28693874289775 417.68 C 452.28693874289775 422.473832064 448.40109641795226 426.36 443.607666015625 426.36 C 438.81423561329774 426.36 434.92839328835225 422.473832064 434.92839328835225 417.68 Z" stroke-miterlimit="10"/></g><g transform="translate(-54,-14) scale(1,1)"><path fill="none" stroke="#000000" d="M 443.607666015625 426.36 L 443.607666015625 443.64" stroke-miterlimit="10"/></g><g transform="translate(-54,-14) scale(1,1)"><path fill="none" stroke="#000000" d="M 434.41784783380683 432.84 L 452.79748419744317 432.84" stroke-miterlimit="10"/></g><g transform="translate(-54,-14) scale(1,1)"><path fill="none" stroke="#000000" d="M 443.607666015625 443.64 L 430.84402965198865 461" stroke-miterlimit="10"/></g><g transform="translate(-54,-14) scale(1,1)"><path fill="none" stroke="#000000" d="M 443.607666015625 443.64 L 456.37130237926135 461" stroke-miterlimit="10"/></g><g transform="translate(-54,-14) scale(1,1)"><g><path fill="none" stroke="none"/><text fill="#000000" stroke="none" font-family="Arial" font-size="13px" font-style="normal" font-weight="bold" text-decoration="none" x="412.5390625" y="481.5">Supervisor</text></g></g><g transform="translate(-54,-14) scale(1,1)"><g><path fill="none" stroke="none"/><text fill="#000000" stroke="none" font-family="Arial" font-size="13px" font-style="normal" font-weight="normal" text-decoration="none" x="405.33447265625" y="496.5">(from HRMS)</text></g></g><g transform="translate(-54,-14) scale(1,1)"><path fill="none" stroke="#000000" d="M 488 407 L 559 332" stroke-miterlimit="10"/></g><g transform="translate(-54,-14) scale(1,1)"><path fill="#FFFFFF" stroke="none" d="M 551.1407724378743 352.5482977914649 L 559 332 L 538.9128461857472 340.97252760611804"/></g><g transform="translate(-54,-14) scale(1,1)"><path fill="none" stroke="#000000" d="M 551.1407724378743 352.5482977914649 L 559 332 L 538.9128461857472 340.97252760611804 L 551.1407724378743 352.5482977914649" stroke-miterlimit="10"/></g><g transform="translate(-54,-14) scale(1,1)"><path fill="none" stroke="#000000" d="M 359 473 L 292 487" stroke-miterlimit="10"/></g><g transform="translate(-54,-14) scale(1,1)"><path fill="none" stroke="#000000" d="M 301.08681787617525 480.80082740317533 L 292 487 L 302.8088275206112 489.04187355869016" stroke-miterlimit="10"/></g><g transform="translate(-54,-14) scale(1,1)"><path fill="#ffff00" stroke="none" d="M 744.2870358664773 729.6800000000001 C 744.2870358664773 724.8861679360001 748.1728781914227 721 752.96630859375 721 C 757.7597389960773 721 761.6455813210227 724.8861679360001 761.6455813210227 729.6800000000001 C 761.6455813210227 734.473832064 757.7597389960773 738.36 752.96630859375 738.36 C 748.1728781914227 738.36 744.2870358664773 734.473832064 744.2870358664773 729.6800000000001 Z"/></g><g transform="translate(-54,-14) scale(1,1)"><path fill="none" stroke="#000000" d="M 744.2870358664773 729.6800000000001 C 744.2870358664773 724.8861679360001 748.1728781914227 721 752.96630859375 721 C 757.7597389960773 721 761.6455813210227 724.8861679360001 761.6455813210227 729.6800000000001 C 761.6455813210227 734.473832064 757.7597389960773 738.36 752.96630859375 738.36 C 748.1728781914227 738.36 744.2870358664773 734.473832064 744.2870358664773 729.6800000000001 Z" stroke-miterlimit="10"/></g><g transform="translate(-54,-14) scale(1,1)"><path fill="none" stroke="#000000" d="M 752.96630859375 738.36 L 752.96630859375 755.64" stroke-miterlimit="10"/></g><g transform="translate(-54,-14) scale(1,1)"><path fill="none" stroke="#000000" d="M 743.7764904119318 744.84 L 762.1561267755682 744.84" stroke-miterlimit="10"/></g><g transform="translate(-54,-14) scale(1,1)"><path fill="none" stroke="#000000" d="M 752.96630859375 755.64 L 740.2026722301136 773" stroke-miterlimit="10"/></g><g transform="translate(-54,-14) scale(1,1)"><path fill="none" stroke="#000000" d="M 752.96630859375 755.64 L 765.7299449573864 773" stroke-miterlimit="10"/></g><g transform="translate(-54,-14) scale(1,1)"><g><path fill="none" stroke="none"/><text fill="#000000" stroke="none" font-family="Arial" font-size="13px" font-style="normal" font-weight="bold" text-decoration="none" x="666.25732421875" y="793.5">Account Management System</text></g></g><g transform="translate(-54,-14) scale(1,1)"><g><path fill="none" stroke="none"/><text fill="#000000" stroke="none" font-family="Arial" font-size="13px" font-style="normal" font-weight="normal" text-decoration="none" x="714.693115234375" y="808.5">(from HRMS)</text></g></g><g transform="translate(-54,-14) scale(1,1)"><path fill="none" stroke="#000000" d="M 1010 579 L 818 719" stroke-miterlimit="10"/></g><g transform="translate(-54,-14) scale(1,1)"><path fill="none" stroke="#000000" d="M 823.7313871539673 709.6111128832359 L 818 719 L 828.6916484702347 716.4137569741168" stroke-miterlimit="10"/></g><g transform="translate(-54,-14) scale(1,1)"><path fill="none" stroke="#000000" d="M 935 783 L 851 776" stroke-miterlimit="10"/></g><g transform="translate(-54,-14) scale(1,1)"><path fill="none" stroke="#000000" d="M 861.4771519437884 772.6489871461347 L 851 776 L 860.777989099786 781.0389412741632" stroke-miterlimit="10"/></g><g transform="translate(-54,-14) scale(1,1)"><path fill="none" stroke="#000000" d="M 1059 775 L 1471 339" stroke-miterlimit="10" stroke-dasharray="3"/></g><g transform="translate(-54,-14) scale(1,1)"><path fill="none" stroke="#000000" d="M 1467.0796748869582 349.277696775448 L 1471 339 L 1460.9604824432138 343.4953406130106" stroke-miterlimit="10"/></g><g transform="translate(-54,-14) scale(1,1)"><g><path fill="none" stroke="none"/><text fill="#000000" stroke="none" font-family="Arial" font-size="13px" font-style="normal" font-weight="normal" text-decoration="none" x="1215.5" y="542.5">«include»</text></g></g><g transform="translate(-54,-14) scale(1,1)"><path fill="none" stroke="#000000" d="M 1101 179 L 1439 303" stroke-miterlimit="10" stroke-dasharray="3"/></g><g transform="translate(-54,-14) scale(1,1)"><path fill="none" stroke="#000000" d="M 1428.0092805065644 303.45175769679776 L 1439 303 L 1430.9089467852136 295.54782864693146" stroke-miterlimit="10"/></g><g transform="translate(-54,-14) scale(1,1)"><g><path fill="none" stroke="none"/><text fill="#000000" stroke="none" font-family="Arial" font-size="13px" font-style="normal" font-weight="normal" text-decoration="none" x="1252.5" y="218.5">«include»</text></g></g><g transform="translate(-54,-14) scale(1,1)"><path fill="#C0C0C0" stroke="none" d="M 223 240 C 223 230.6111584 282.322264 223 355.5 223 C 428.677736 223 488 230.6111584 488 240 C 488 249.3888416 428.677736 257 355.5 257 C 282.322264 257 223 249.3888416 223 240 Z" opacity="0.2"/></g><g transform="translate(-54,-14) scale(1,1)"><path fill="#ffff00" stroke="none" d="M 216 233 C 216 223.6111584 275.322264 216 348.5 216 C 421.677736 216 481 223.6111584 481 233 C 481 242.3888416 421.677736 250 348.5 250 C 275.322264 250 216 242.3888416 216 233 Z"/></g><g transform="translate(-54,-14) scale(1,1)"><path fill="none" stroke="#000000" d="M 216 233 C 216 223.6111584 275.322264 216 348.5 216 C 421.677736 216 481 223.6111584 481 233 C 481 242.3888416 421.677736 250 348.5 250 C 275.322264 250 216 242.3888416 216 233 Z" stroke-miterlimit="10"/></g><g transform="translate(-54,-14) scale(1,1)"><g><path fill="none" stroke="none"/><text fill="#000000" stroke="none" font-family="Arial" font-size="13px" font-style="normal" font-weight="bold" text-decoration="none" x="265.761474609375" y="240">view performance evaluation</text></g></g><g transform="translate(-54,-14) scale(1,1)"><path fill="#C0C0C0" stroke="none" d="M 287 632 C 287 622.6111584 359.75372 615 449.5 615 C 539.24628 615 612 622.6111584 612 632 C 612 641.3888416 539.24628 649 449.5 649 C 359.75372 649 287 641.3888416 287 632 Z" opacity="0.2"/></g><g transform="translate(-54,-14) scale(1,1)"><path fill="#ffff49" stroke="none" d="M 280 625 C 280 615.6111584 352.75372 608 442.5 608 C 532.24628 608 605 615.6111584 605 625 C 605 634.3888416 532.24628 642 442.5 642 C 352.75372 642 280 634.3888416 280 625 Z"/></g><g transform="translate(-54,-14) scale(1,1)"><path fill="none" stroke="#000000" d="M 280 625 C 280 615.6111584 352.75372 608 442.5 608 C 532.24628 608 605 615.6111584 605 625 C 605 634.3888416 532.24628 642 442.5 642 C 352.75372 642 280 634.3888416 280 625 Z" stroke-miterlimit="10"/></g><g transform="translate(-54,-14) scale(1,1)"><g><path fill="none" stroke="none"/><text fill="#000000" stroke="none" font-family="Arial" font-size="13px" font-style="normal" font-weight="bold" text-decoration="none" x="339.893310546875" y="632">create performance evaluation form</text></g></g><g transform="translate(-54,-14) scale(1,1)"><path fill="none" stroke="#000000" d="M 552 511 L 459 607" stroke-miterlimit="10"/></g><g transform="translate(-54,-14) scale(1,1)"><path fill="none" stroke="#000000" d="M 463.0476955750244 596.7717958305514 L 459 607 L 469.0945855168562 602.6297204617009" stroke-miterlimit="10"/></g><g transform="translate(-54,-14) scale(1,1)"><path fill="none" stroke="#000000" d="M 559 278 L 433 251" stroke-miterlimit="10"/></g><g transform="translate(-54,-14) scale(1,1)"><path fill="none" stroke="#000000" d="M 443.81910442868315 249.01329937805198 L 433 251 L 442.0550715898542 257.2454526259203" stroke-miterlimit="10"/></g><g transform="translate(-54,-14) scale(1,1)"><path fill="#C0C0C0" stroke="none" d="M 991 665 C 991 650.6405952 1023.2354944 639 1063 639 C 1102.7645056 639 1135 650.6405952 1135 665 C 1135 679.3594048 1102.7645056 691 1063 691 C 1023.2354944 691 991 679.3594048 991 665 Z" opacity="0.2"/></g><g transform="translate(-54,-14) scale(1,1)"><path fill="#ffff00" stroke="none" d="M 984 658 C 984 643.6405952 1016.2354944 632 1056 632 C 1095.7645056 632 1128 643.6405952 1128 658 C 1128 672.3594048 1095.7645056 684 1056 684 C 1016.2354944 684 984 672.3594048 984 658 Z"/></g><g transform="translate(-54,-14) scale(1,1)"><path fill="none" stroke="#000000" d="M 984 658 C 984 643.6405952 1016.2354944 632 1056 632 C 1095.7645056 632 1128 643.6405952 1128 658 C 1128 672.3594048 1095.7645056 684 1056 684 C 1016.2354944 684 984 672.3594048 984 658 Z" stroke-miterlimit="10"/></g><g transform="translate(-54,-14) scale(1,1)"><g><path fill="none" stroke="none"/><text fill="#000000" stroke="none" font-family="Arial" font-size="13px" font-style="normal" font-weight="bold" text-decoration="none" x="1027.095947265625" y="658.5">determine</text><text fill="#000000" stroke="none" font-family="Arial" font-size="13px" font-style="normal" font-weight="bold" text-decoration="none" x="1038.661376953125" y="671.5">salary</text></g></g><g transform="translate(-54,-14) scale(1,1)"><path fill="none" stroke="#000000" d="M 645 483 L 993 631" stroke-miterlimit="10"/></g><g transform="translate(-54,-14) scale(1,1)"><path fill="none" stroke="#000000" d="M 982.0004875217961 630.8964372565163 L 993 631 L 985.2954000551116 623.1489402187204" stroke-miterlimit="10"/></g><g transform="translate(-54,-14) scale(1,1)"><path fill="none" stroke="#000000" d="M 1091 631 L 1465 339" stroke-miterlimit="10" stroke-dasharray="3"/></g><g transform="translate(-54,-14) scale(1,1)"><path fill="none" stroke="#000000" d="M 1459.5801480471423 348.57210555777067 L 1465 339 L 1454.399085180974 341.93608668124017" stroke-miterlimit="10"/></g><g transform="translate(-54,-14) scale(1,1)"><g><path fill="none" stroke="none"/><text fill="#000000" stroke="none" font-family="Arial" font-size="13px" font-style="normal" font-weight="normal" text-decoration="none" x="1231.5" y="467.5">«include»</text></g></g><g transform="translate(-54,-14) scale(1,1)"><path fill="#C0C0C0" stroke="none" d="M 711 320 C 711 310.6111584 734.505048 303 763.5 303 C 792.494952 303 816 310.6111584 816 320 C 816 329.3888416 792.494952 337 763.5 337 C 734.505048 337 711 329.3888416 711 320 Z" opacity="0.2"/></g><g transform="translate(-54,-14) scale(1,1)"><path fill="#ffff49" stroke="none" d="M 704 313 C 704 303.6111584 727.505048 296 756.5 296 C 785.494952 296 809 303.6111584 809 313 C 809 322.3888416 785.494952 330 756.5 330 C 727.505048 330 704 322.3888416 704 313 Z"/></g><g transform="translate(-54,-14) scale(1,1)"><path fill="none" stroke="#000000" d="M 704 313 C 704 303.6111584 727.505048 296 756.5 296 C 785.494952 296 809 303.6111584 809 313 C 809 322.3888416 785.494952 330 756.5 330 C 727.505048 330 704 322.3888416 704 313 Z" stroke-miterlimit="10"/></g><g transform="translate(-54,-14) scale(1,1)"><g><path fill="none" stroke="none"/><text fill="#000000" stroke="none" font-family="Arial" font-size="13px" font-style="italic" font-weight="bold" text-decoration="none" x="726.504150390625" y="320">add action</text></g></g><g transform="translate(-54,-14) scale(1,1)"><path fill="none" stroke="#000000" d="M 645 418 L 737 331" stroke-miterlimit="10"/></g><g transform="translate(-54,-14) scale(1,1)"><path fill="none" stroke="#000000" d="M 732.5083606044365 341.0411740120477 L 737 331 L 726.7237490897593 334.9241135597454" stroke-miterlimit="10"/></g><g transform="translate(-54,-14) scale(1,1)"><path fill="none" stroke="#000000" d="M 1021 463 L 788 331" stroke-miterlimit="10"/></g><g transform="translate(-54,-14) scale(1,1)"><path fill="#FFFFFF" stroke="none" d="M 809.834487364966 333.6935407012224 L 788 331 L 801.5346931842631 348.34393497473576"/></g><g transform="translate(-54,-14) scale(1,1)"><path fill="none" stroke="#000000" d="M 809.834487364966 333.6935407012224 L 788 331 L 801.5346931842631 348.34393497473576 L 809.834487364966 333.6935407012224" stroke-miterlimit="10"/></g><g transform="translate(-54,-14) scale(1,1)"><path fill="none" stroke="#000000" d="M 1011 407 L 805 331" stroke-miterlimit="10"/></g><g transform="translate(-54,-14) scale(1,1)"><path fill="#FFFFFF" stroke="none" d="M 826.9830483459064 330.13652711591834 L 805 331 L 821.1549300882469 345.93379502483725"/></g><g transform="translate(-54,-14) scale(1,1)"><path fill="none" stroke="#000000" d="M 826.9830483459064 330.13652711591834 L 805 331 L 821.1549300882469 345.93379502483725 L 826.9830483459064 330.13652711591834" stroke-miterlimit="10"/></g><g transform="translate(-54,-14) scale(1,1)"><path fill="none" stroke="#000000" d="M 975 347 L 810 321" stroke-miterlimit="10"/></g><g transform="translate(-54,-14) scale(1,1)"><path fill="#FFFFFF" stroke="none" d="M 831.3880794908816 315.84732538464476 L 810 321 L 828.7671472063248 332.4801648827939"/></g><g transform="translate(-54,-14) scale(1,1)"><path fill="none" stroke="#000000" d="M 831.3880794908816 315.84732538464476 L 810 321 L 828.7671472063248 332.4801648827939 L 831.3880794908816 315.84732538464476" stroke-miterlimit="10"/></g><g transform="translate(-54,-14) scale(1,1)"><path fill="none" stroke="#000000" d="M 967 308 L 810 312" stroke-miterlimit="10"/></g><g transform="translate(-54,-14) scale(1,1)"><path fill="#FFFFFF" stroke="none" d="M 830.1043280577976 303.06602029639356 L 810 312 L 830.5331843322707 319.89862906946456"/></g><g transform="translate(-54,-14) scale(1,1)"><path fill="none" stroke="#000000" d="M 830.1043280577976 303.06602029639356 L 810 312 L 830.5331843322707 319.89862906946456 L 830.1043280577976 303.06602029639356" stroke-miterlimit="10"/></g><g transform="translate(-54,-14) scale(1,1)"><path fill="none" stroke="#000000" d="M 991 259 L 810 301" stroke-miterlimit="10"/></g><g transform="translate(-54,-14) scale(1,1)"><path fill="#FFFFFF" stroke="none" d="M 827.8962701461999 288.20455101005695 L 810 301 L 831.7023227274397 304.606825229209"/></g><g transform="translate(-54,-14) scale(1,1)"><path fill="none" stroke="#000000" d="M 827.8962701461999 288.20455101005695 L 810 301 L 831.7023227274397 304.606825229209 L 827.8962701461999 288.20455101005695" stroke-miterlimit="10"/></g><g transform="translate(-54,-14) scale(1,1)"><path fill="none" stroke="#000000" d="M 1017 179 L 791 295" stroke-miterlimit="10"/></g><g transform="translate(-54,-14) scale(1,1)"><path fill="#FFFFFF" stroke="none" d="M 805.2380807108801 278.22868348428 L 791 295 L 812.9269550594363 293.20873178405316"/></g><g transform="translate(-54,-14) scale(1,1)"><path fill="none" stroke="#000000" d="M 805.2380807108801 278.22868348428 L 791 295 L 812.9269550594363 293.20873178405316 L 805.2380807108801 278.22868348428" stroke-miterlimit="10"/></g><g transform="translate(-54,-14) scale(1,1)"><path fill="none" stroke="#000000" d="M 1007 99 L 777 295" stroke-miterlimit="10"/></g><g transform="translate(-54,-14) scale(1,1)"><path fill="#FFFFFF" stroke="none" d="M 787.0094171945163 275.4088906024666 L 777 295 L 797.9307330799311 288.22472046800436"/></g><g transform="translate(-54,-14) scale(1,1)"><path fill="none" stroke="#000000" d="M 787.0094171945163 275.4088906024666 L 777 295 L 797.9307330799311 288.22472046800436 L 787.0094171945163 275.4088906024666" stroke-miterlimit="10"/></g><g transform="translate(-54,-14) scale(1,1)"><path fill="none" stroke="#000000" d="M 1015 543 L 776 331" stroke-miterlimit="10"/></g><g transform="translate(-54,-14) scale(1,1)"><path fill="#FFFFFF" stroke="none" d="M 796.7921450459886 338.189346589682 L 776 331 L 785.6186310315683 350.7859024832973"/></g><g transform="translate(-54,-14) scale(1,1)"><path fill="none" stroke="#000000" d="M 796.7921450459886 338.189346589682 L 776 331 L 785.6186310315683 350.7859024832973 L 796.7921450459886 338.189346589682" stroke-miterlimit="10"/></g></g></svg>