<svg version="1.1" xmlns="http://www.w3.org/2000/svg" xmlns:xlink="http://www.w3.org/1999/xlink" width="757.9326171875" height="379"><defs/><g><g transform="translate(-134,-38) scale(1,1)"><rect fill="#C0C0C0" stroke="none" x="519" y="271" width="28.799999999999955" height="15" opacity="0.2"/></g><g transform="translate(-134,-38) scale(1,1)"><rect fill="#C0C0C0" stroke="none" x="519" y="285" width="72" height="25" opacity="0.2"/></g><g transform="translate(-134,-38) scale(1,1)"><rect fill="#ffff00" stroke="none" x="512" y="279" width="72" height="24"/></g><g transform="translate(-134,-38) scale(1,1)"><path fill="none" stroke="#000000" d="M 512 279 L 584 279 L 584 303 L 512 303 L 512 279 Z Z" stroke-miterlimit="10"/></g><g transform="translate(-134,-38) scale(1,1)"><rect fill="#ffff00" stroke="none" x="512" y="264" width="28.799999999999955" height="15"/></g><g transform="translate(-134,-38) scale(1,1)"><path fill="none" stroke="#000000" d="M 512 264 L 540.8 264 L 540.8 279 L 512 279 L 512 264 Z Z" stroke-miterlimit="10"/></g><g transform="translate(-134,-38) scale(1,1)"><rect fill="#ffff00" stroke="none" x="512" y="278" width="72" height="25"/></g><g transform="translate(-134,-38) scale(1,1)"><path fill="none" stroke="#000000" d="M 512 278 L 584 278 L 584 303 L 512 303 L 512 278 Z Z" stroke-miterlimit="10"/></g><g transform="translate(-134,-38) scale(1,1)"><g><path fill="none" stroke="none"/><text fill="#000000" stroke="none" font-family="Arial" font-size="13px" font-style="normal" font-weight="bold" text-decoration="none" x="518.73095703125" y="298.5">Personnel</text></g></g><g transform="translate(-134,-38) scale(1,1)"><rect fill="#C0C0C0" stroke="none" x="471" y="159" width="64.39999999999998" height="15" opacity="0.2"/></g><g transform="translate(-134,-38) scale(1,1)"><rect fill="#C0C0C0" stroke="none" x="471" y="173" width="161" height="25" opacity="0.2"/></g><g transform="translate(-134,-38) scale(1,1)"><rect fill="#ffff00" stroke="none" x="464" y="167" width="161" height="24"/></g><g transform="translate(-134,-38) scale(1,1)"><path fill="none" stroke="#000000" d="M 464 167 L 625 167 L 625 191 L 464 191 L 464 167 Z Z" stroke-miterlimit="10"/></g><g transform="translate(-134,-38) scale(1,1)"><rect fill="#ffff00" stroke="none" x="464" y="152" width="64.39999999999998" height="15"/></g><g transform="translate(-134,-38) scale(1,1)"><path fill="none" stroke="#000000" d="M 464 152 L 528.4 152 L 528.4 167 L 464 167 L 464 152 Z Z" stroke-miterlimit="10"/></g><g transform="translate(-134,-38) scale(1,1)"><rect fill="#ffff00" stroke="none" x="464" y="166" width="161" height="25"/></g><g transform="translate(-134,-38) scale(1,1)"><path fill="none" stroke="#000000" d="M 464 166 L 625 166 L 625 191 L 464 191 L 464 166 Z Z" stroke-miterlimit="10"/></g><g transform="translate(-134,-38) scale(1,1)"><g><path fill="none" stroke="none"/><text fill="#000000" stroke="none" font-family="Arial" font-size="13px" font-style="normal" font-weight="bold" text-decoration="none" x="474.4091796875" y="186.5">Organizational Structure</text></g></g><g transform="translate(-134,-38) scale(1,1)"><path fill="#ffff00" stroke="none" d="M 170.82072727272728 289.68 C 170.82072727272728 284.886167936 174.70656959767274 281 179.5 281 C 184.29343040232726 281 188.17927272727272 284.886167936 188.17927272727272 289.68 C 188.17927272727272 294.473832064 184.29343040232726 298.36 179.5 298.36 C 174.70656959767274 298.36 170.82072727272728 294.473832064 170.82072727272728 289.68 Z"/></g><g transform="translate(-134,-38) scale(1,1)"><path fill="none" stroke="#000000" d="M 170.82072727272728 289.68 C 170.82072727272728 284.886167936 174.70656959767274 281 179.5 281 C 184.29343040232726 281 188.17927272727272 284.886167936 188.17927272727272 289.68 C 188.17927272727272 294.473832064 184.29343040232726 298.36 179.5 298.36 C 174.70656959767274 298.36 170.82072727272728 294.473832064 170.82072727272728 289.68 Z" stroke-miterlimit="10"/></g><g transform="translate(-134,-38) scale(1,1)"><path fill="none" stroke="#000000" d="M 179.5 298.36 L 179.5 315.64" stroke-miterlimit="10"/></g><g transform="translate(-134,-38) scale(1,1)"><path fill="none" stroke="#000000" d="M 170.31018181818183 304.84 L 188.68981818181817 304.84" stroke-miterlimit="10"/></g><g transform="translate(-134,-38) scale(1,1)"><path fill="none" stroke="#000000" d="M 179.5 315.64 L 166.73636363636365 333" stroke-miterlimit="10"/></g><g transform="translate(-134,-38) scale(1,1)"><path fill="none" stroke="#000000" d="M 179.5 315.64 L 192.26363636363635 333" stroke-miterlimit="10"/></g><g transform="translate(-134,-38) scale(1,1)"><g><path fill="none" stroke="none"/><text fill="#000000" stroke="none" font-family="Arial" font-size="13px" font-style="normal" font-weight="bold" text-decoration="none" x="150.595947265625" y="353.5">Employee</text></g></g><g transform="translate(-134,-38) scale(1,1)"><path fill="#ffff00" stroke="none" d="M 333.36296360085225 241.68 C 333.36296360085225 236.886167936 337.24880592579774 233 342.042236328125 233 C 346.83566673045226 233 350.72150905539775 236.886167936 350.72150905539775 241.68 C 350.72150905539775 246.47383206400002 346.83566673045226 250.36 342.042236328125 250.36 C 337.24880592579774 250.36 333.36296360085225 246.47383206400002 333.36296360085225 241.68 Z"/></g><g transform="translate(-134,-38) scale(1,1)"><path fill="none" stroke="#000000" d="M 333.36296360085225 241.68 C 333.36296360085225 236.886167936 337.24880592579774 233 342.042236328125 233 C 346.83566673045226 233 350.72150905539775 236.886167936 350.72150905539775 241.68 C 350.72150905539775 246.47383206400002 346.83566673045226 250.36 342.042236328125 250.36 C 337.24880592579774 250.36 333.36296360085225 246.47383206400002 333.36296360085225 241.68 Z" stroke-miterlimit="10"/></g><g transform="translate(-134,-38) scale(1,1)"><path fill="none" stroke="#000000" d="M 342.042236328125 250.36 L 342.042236328125 267.64" stroke-miterlimit="10"/></g><g transform="translate(-134,-38) scale(1,1)"><path fill="none" stroke="#000000" d="M 332.85241814630683 256.84 L 351.23205450994317 256.84" stroke-miterlimit="10"/></g><g transform="translate(-134,-38) scale(1,1)"><path fill="none" stroke="#000000" d="M 342.042236328125 267.64 L 329.27859996448865 285" stroke-miterlimit="10"/></g><g transform="translate(-134,-38) scale(1,1)"><path fill="none" stroke="#000000" d="M 342.042236328125 267.64 L 354.80587269176135 285" stroke-miterlimit="10"/></g><g transform="translate(-134,-38) scale(1,1)"><g><path fill="none" stroke="none"/><text fill="#000000" stroke="none" font-family="Arial" font-size="13px" font-style="normal" font-weight="bold" text-decoration="none" x="303.029541015625" y="305.5">HR Specialist</text></g></g><g transform="translate(-134,-38) scale(1,1)"><path fill="none" stroke="#000000" d="M 295 285 L 216 308" stroke-miterlimit="10"/></g><g transform="translate(-134,-38) scale(1,1)"><path fill="#FFFFFF" stroke="none" d="M 233.16169960946092 294.234969432848 L 216 308 L 237.86850062780962 310.40180771326305"/></g><g transform="translate(-134,-38) scale(1,1)"><path fill="none" stroke="#000000" d="M 233.16169960946092 294.234969432848 L 216 308 L 237.86850062780962 310.40180771326305 L 233.16169960946092 294.234969432848" stroke-miterlimit="10"/></g><g transform="translate(-134,-38) scale(1,1)"><path fill="#ffff00" stroke="none" d="M 319.82072727272725 57.68 C 319.82072727272725 52.886167936 323.70656959767274 49 328.5 49 C 333.29343040232726 49 337.17927272727275 52.886167936 337.17927272727275 57.68 C 337.17927272727275 62.473832064 333.29343040232726 66.36 328.5 66.36 C 323.70656959767274 66.36 319.82072727272725 62.473832064 319.82072727272725 57.68 Z"/></g><g transform="translate(-134,-38) scale(1,1)"><path fill="none" stroke="#000000" d="M 319.82072727272725 57.68 C 319.82072727272725 52.886167936 323.70656959767274 49 328.5 49 C 333.29343040232726 49 337.17927272727275 52.886167936 337.17927272727275 57.68 C 337.17927272727275 62.473832064 333.29343040232726 66.36 328.5 66.36 C 323.70656959767274 66.36 319.82072727272725 62.473832064 319.82072727272725 57.68 Z" stroke-miterlimit="10"/></g><g transform="translate(-134,-38) scale(1,1)"><path fill="none" stroke="#000000" d="M 328.5 66.36 L 328.5 83.64" stroke-miterlimit="10"/></g><g transform="translate(-134,-38) scale(1,1)"><path fill="none" stroke="#000000" d="M 319.31018181818183 72.84 L 337.68981818181817 72.84" stroke-miterlimit="10"/></g><g transform="translate(-134,-38) scale(1,1)"><path fill="none" stroke="#000000" d="M 328.5 83.64 L 315.73636363636365 101" stroke-miterlimit="10"/></g><g transform="translate(-134,-38) scale(1,1)"><path fill="none" stroke="#000000" d="M 328.5 83.64 L 341.26363636363635 101" stroke-miterlimit="10"/></g><g transform="translate(-134,-38) scale(1,1)"><g><path fill="none" stroke="none"/><text fill="#000000" stroke="none" font-family="Arial" font-size="13px" font-style="normal" font-weight="bold" text-decoration="none" x="311.158203125" y="121.5">Guest</text></g></g><g transform="translate(-134,-38) scale(1,1)"><path fill="#ffff00" stroke="none" d="M 335.21843235085225 337.68 C 335.21843235085225 332.886167936 339.10427467579774 329 343.897705078125 329 C 348.69113548045226 329 352.57697780539775 332.886167936 352.57697780539775 337.68 C 352.57697780539775 342.473832064 348.69113548045226 346.36 343.897705078125 346.36 C 339.10427467579774 346.36 335.21843235085225 342.473832064 335.21843235085225 337.68 Z"/></g><g transform="translate(-134,-38) scale(1,1)"><path fill="none" stroke="#000000" d="M 335.21843235085225 337.68 C 335.21843235085225 332.886167936 339.10427467579774 329 343.897705078125 329 C 348.69113548045226 329 352.57697780539775 332.886167936 352.57697780539775 337.68 C 352.57697780539775 342.473832064 348.69113548045226 346.36 343.897705078125 346.36 C 339.10427467579774 346.36 335.21843235085225 342.473832064 335.21843235085225 337.68 Z" stroke-miterlimit="10"/></g><g transform="translate(-134,-38) scale(1,1)"><path fill="none" stroke="#000000" d="M 343.897705078125 346.36 L 343.897705078125 363.64" stroke-miterlimit="10"/></g><g transform="translate(-134,-38) scale(1,1)"><path fill="none" stroke="#000000" d="M 334.70788689630683 352.84 L 353.08752325994317 352.84" stroke-miterlimit="10"/></g><g transform="translate(-134,-38) scale(1,1)"><path fill="none" stroke="#000000" d="M 343.897705078125 363.64 L 331.13406871448865 381" stroke-miterlimit="10"/></g><g transform="translate(-134,-38) scale(1,1)"><path fill="none" stroke="#000000" d="M 343.897705078125 363.64 L 356.66134144176135 381" stroke-miterlimit="10"/></g><g transform="translate(-134,-38) scale(1,1)"><g><path fill="none" stroke="none"/><text fill="#000000" stroke="none" font-family="Arial" font-size="13px" font-style="normal" font-weight="bold" text-decoration="none" x="312.8291015625" y="401.5">Supervisor</text></g></g><g transform="translate(-134,-38) scale(1,1)"><path fill="none" stroke="#000000" d="M 303 355 L 216 330" stroke-miterlimit="10"/></g><g transform="translate(-134,-38) scale(1,1)"><path fill="#FFFFFF" stroke="none" d="M 237.85998303487213 327.5218672926773 L 216 330 L 233.20964668260902 343.7050377985529"/></g><g transform="translate(-134,-38) scale(1,1)"><path fill="none" stroke="#000000" d="M 237.85998303487213 327.5218672926773 L 216 330 L 233.20964668260902 343.7050377985529 L 237.85998303487213 327.5218672926773" stroke-miterlimit="10"/></g><g transform="translate(-134,-38) scale(1,1)"><path fill="#ffff00" stroke="none" d="M 776.2870358664773 201.68 C 776.2870358664773 196.886167936 780.1728781914227 193 784.96630859375 193 C 789.7597389960773 193 793.6455813210227 196.886167936 793.6455813210227 201.68 C 793.6455813210227 206.47383206400002 789.7597389960773 210.36 784.96630859375 210.36 C 780.1728781914227 210.36 776.2870358664773 206.47383206400002 776.2870358664773 201.68 Z"/></g><g transform="translate(-134,-38) scale(1,1)"><path fill="none" stroke="#000000" d="M 776.2870358664773 201.68 C 776.2870358664773 196.886167936 780.1728781914227 193 784.96630859375 193 C 789.7597389960773 193 793.6455813210227 196.886167936 793.6455813210227 201.68 C 793.6455813210227 206.47383206400002 789.7597389960773 210.36 784.96630859375 210.36 C 780.1728781914227 210.36 776.2870358664773 206.47383206400002 776.2870358664773 201.68 Z" stroke-miterlimit="10"/></g><g transform="translate(-134,-38) scale(1,1)"><path fill="none" stroke="#000000" d="M 784.96630859375 210.36 L 784.96630859375 227.64" stroke-miterlimit="10"/></g><g transform="translate(-134,-38) scale(1,1)"><path fill="none" stroke="#000000" d="M 775.7764904119318 216.84 L 794.1561267755682 216.84" stroke-miterlimit="10"/></g><g transform="translate(-134,-38) scale(1,1)"><path fill="none" stroke="#000000" d="M 784.96630859375 227.64 L 772.2026722301136 245" stroke-miterlimit="10"/></g><g transform="translate(-134,-38) scale(1,1)"><path fill="none" stroke="#000000" d="M 784.96630859375 227.64 L 797.7299449573864 245" stroke-miterlimit="10"/></g><g transform="translate(-134,-38) scale(1,1)"><g><path fill="none" stroke="none"/><text fill="#000000" stroke="none" font-family="Arial" font-size="13px" font-style="normal" font-weight="bold" text-decoration="none" x="698.25732421875" y="265.5">Account Management System</text></g></g></g></svg>